<svg xmlns="http://www.w3.org/2000/svg" xmlns:xlink="http://www.w3.org/1999/xlink" width="500" zoomAndPan="magnify" viewBox="0 0 375 374.999991" height="500" preserveAspectRatio="xMidYMid meet" version="1.0"><defs><g/><clipPath id="9266f79f45"><path d="M 43.21875 0 L 363.46875 0 L 363.46875 375 L 43.21875 375 Z M 43.21875 0 " clip-rule="nonzero"/></clipPath></defs><g clip-path="url(#9266f79f45)"><path fill="#000000" d="M 162.925781 40.890625 C 162.925781 39.5625 162.992188 38.234375 163.121094 36.914062 C 163.25 35.589844 163.445312 34.277344 163.707031 32.976562 C 163.964844 31.671875 164.289062 30.382812 164.675781 29.113281 C 165.058594 27.839844 165.507812 26.589844 166.015625 25.363281 C 166.527344 24.136719 167.09375 22.933594 167.722656 21.761719 C 168.347656 20.589844 169.03125 19.453125 169.769531 18.347656 C 170.507812 17.242188 171.300781 16.175781 172.144531 15.148438 C 172.988281 14.121094 173.878906 13.136719 174.820312 12.199219 C 175.761719 11.257812 176.746094 10.367188 177.773438 9.523438 C 178.800781 8.679688 179.867188 7.890625 180.972656 7.152344 C 182.078125 6.414062 183.21875 5.730469 184.390625 5.105469 C 185.566406 4.480469 186.765625 3.910156 187.996094 3.402344 C 189.222656 2.894531 190.472656 2.445312 191.746094 2.0625 C 193.019531 1.675781 194.308594 1.351562 195.613281 1.09375 C 196.917969 0.835938 198.230469 0.640625 199.554688 0.507812 C 200.878906 0.378906 202.207031 0.3125 203.535156 0.3125 C 204.863281 0.3125 206.191406 0.378906 207.515625 0.507812 C 208.839844 0.640625 210.152344 0.835938 211.457031 1.09375 C 212.761719 1.351562 214.050781 1.675781 215.324219 2.0625 C 216.597656 2.445312 217.847656 2.894531 219.074219 3.402344 C 220.304688 3.910156 221.503906 4.480469 222.679688 5.105469 C 223.851562 5.730469 224.992188 6.414062 226.097656 7.152344 C 227.203125 7.890625 228.269531 8.679688 229.296875 9.523438 C 230.324219 10.367188 231.308594 11.257812 232.25 12.199219 C 233.191406 13.136719 234.082031 14.121094 234.925781 15.148438 C 235.769531 16.175781 236.5625 17.242188 237.300781 18.347656 C 238.039062 19.453125 238.722656 20.589844 239.347656 21.761719 C 239.976562 22.933594 240.542969 24.136719 241.054688 25.363281 C 241.5625 26.589844 242.011719 27.839844 242.394531 29.113281 C 242.78125 30.382812 243.105469 31.671875 243.363281 32.976562 C 243.625 34.277344 243.820312 35.589844 243.949219 36.914062 C 244.078125 38.234375 244.144531 39.5625 244.144531 40.890625 C 244.144531 42.21875 244.078125 43.546875 243.949219 44.867188 C 243.820312 46.191406 243.625 47.503906 243.363281 48.808594 C 243.105469 50.109375 242.78125 51.398438 242.394531 52.667969 C 242.011719 53.941406 241.5625 55.191406 241.054688 56.417969 C 240.542969 57.648438 239.976562 58.847656 239.347656 60.019531 C 238.722656 61.191406 238.039062 62.328125 237.300781 63.433594 C 236.5625 64.539062 235.769531 65.605469 234.925781 66.632812 C 234.082031 67.660156 233.191406 68.644531 232.25 69.582031 C 231.308594 70.523438 230.324219 71.414062 229.296875 72.257812 C 228.269531 73.101562 227.203125 73.890625 226.097656 74.628906 C 224.992188 75.367188 223.851562 76.050781 222.679688 76.675781 C 221.503906 77.304688 220.304688 77.871094 219.074219 78.378906 C 217.847656 78.886719 216.597656 79.335938 215.324219 79.71875 C 214.050781 80.105469 212.761719 80.429688 211.457031 80.6875 C 210.152344 80.949219 208.839844 81.140625 207.515625 81.273438 C 206.191406 81.402344 204.863281 81.46875 203.535156 81.46875 C 202.207031 81.46875 200.878906 81.402344 199.554688 81.273438 C 198.230469 81.140625 196.917969 80.949219 195.613281 80.6875 C 194.308594 80.429688 193.019531 80.105469 191.746094 79.722656 C 190.472656 79.335938 189.222656 78.886719 187.996094 78.378906 C 186.765625 77.871094 185.566406 77.304688 184.390625 76.675781 C 183.21875 76.050781 182.078125 75.367188 180.972656 74.628906 C 179.867188 73.890625 178.800781 73.101562 177.773438 72.257812 C 176.746094 71.414062 175.761719 70.523438 174.820312 69.582031 C 173.878906 68.644531 172.988281 67.660156 172.144531 66.632812 C 171.300781 65.605469 170.507812 64.539062 169.769531 63.433594 C 169.03125 62.328125 168.347656 61.191406 167.71875 60.019531 C 167.09375 58.847656 166.527344 57.648438 166.015625 56.417969 C 165.507812 55.191406 165.058594 53.941406 164.675781 52.667969 C 164.289062 51.398438 163.964844 50.109375 163.707031 48.808594 C 163.445312 47.503906 163.25 46.191406 163.121094 44.867188 C 162.992188 43.546875 162.925781 42.21875 162.925781 40.890625 Z M 342.828125 101.546875 L 64.242188 101.546875 C 63.578125 101.542969 62.917969 101.574219 62.257812 101.632812 C 61.597656 101.695312 60.941406 101.789062 60.292969 101.914062 C 59.640625 102.039062 58.996094 102.195312 58.363281 102.386719 C 57.726562 102.574219 57.101562 102.792969 56.488281 103.046875 C 55.875 103.296875 55.277344 103.574219 54.691406 103.886719 C 54.105469 104.195312 53.535156 104.53125 52.980469 104.898438 C 52.429688 105.265625 51.894531 105.65625 51.382812 106.074219 C 50.867188 106.492188 50.375 106.9375 49.90625 107.402344 C 49.4375 107.871094 48.988281 108.359375 48.566406 108.871094 C 48.144531 109.378906 47.75 109.910156 47.378906 110.460938 C 47.011719 111.011719 46.667969 111.578125 46.355469 112.160156 C 46.042969 112.746094 45.757812 113.339844 45.503906 113.953125 C 45.25 114.566406 45.023438 115.1875 44.832031 115.820312 C 44.640625 116.453125 44.476562 117.097656 44.347656 117.746094 C 44.21875 118.394531 44.121094 119.050781 44.054688 119.707031 C 43.988281 120.367188 43.957031 121.027344 43.957031 121.691406 C 43.957031 122.351562 43.988281 123.011719 44.054688 123.671875 C 44.121094 124.332031 44.21875 124.984375 44.347656 125.636719 C 44.476562 126.285156 44.640625 126.925781 44.832031 127.558594 C 45.023438 128.195312 45.25 128.816406 45.503906 129.429688 C 45.757812 130.039062 46.042969 130.636719 46.355469 131.21875 C 46.667969 131.804688 47.011719 132.371094 47.378906 132.921875 C 47.75 133.46875 48.144531 134 48.566406 134.511719 C 48.988281 135.023438 49.4375 135.511719 49.90625 135.976562 C 50.375 136.445312 50.867188 136.886719 51.382812 137.304688 C 51.894531 137.722656 52.429688 138.117188 52.980469 138.480469 C 53.535156 138.847656 54.105469 139.1875 54.691406 139.496094 C 55.277344 139.804688 55.875 140.085938 56.488281 140.335938 C 57.101562 140.585938 57.726562 140.804688 58.363281 140.996094 C 58.996094 141.183594 59.640625 141.339844 60.292969 141.46875 C 60.941406 141.59375 61.597656 141.6875 62.257812 141.746094 C 62.917969 141.808594 63.578125 141.835938 64.242188 141.832031 L 154.1875 141.832031 L 154.1875 350.191406 C 154.191406 350.996094 154.234375 351.796875 154.320312 352.597656 C 154.402344 353.398438 154.523438 354.191406 154.683594 354.980469 C 154.847656 355.769531 155.046875 356.546875 155.28125 357.316406 C 155.519531 358.085938 155.792969 358.839844 156.105469 359.582031 C 156.417969 360.324219 156.765625 361.050781 157.144531 361.757812 C 157.527344 362.464844 157.945312 363.152344 158.394531 363.820312 C 158.84375 364.488281 159.324219 365.132812 159.839844 365.753906 C 160.351562 366.375 160.890625 366.96875 161.464844 367.535156 C 162.035156 368.101562 162.632812 368.640625 163.253906 369.148438 C 163.878906 369.65625 164.527344 370.132812 165.195312 370.578125 C 165.867188 371.023438 166.558594 371.4375 167.269531 371.816406 C 167.980469 372.191406 168.707031 372.535156 169.453125 372.84375 C 170.195312 373.148438 170.953125 373.417969 171.722656 373.652344 C 172.496094 373.882812 173.273438 374.078125 174.066406 374.234375 C 174.855469 374.390625 175.648438 374.507812 176.453125 374.585938 C 177.253906 374.667969 178.054688 374.707031 178.859375 374.707031 C 179.667969 374.707031 180.46875 374.667969 181.269531 374.585938 C 182.070312 374.507812 182.867188 374.390625 183.65625 374.234375 C 184.449219 374.078125 185.226562 373.882812 186 373.652344 C 186.769531 373.417969 187.527344 373.148438 188.269531 372.84375 C 189.015625 372.535156 189.742188 372.191406 190.453125 371.816406 C 191.164062 371.4375 191.855469 371.023438 192.527344 370.578125 C 193.195312 370.132812 193.84375 369.65625 194.46875 369.148438 C 195.089844 368.640625 195.6875 368.101562 196.257812 367.535156 C 196.828125 366.96875 197.371094 366.375 197.882812 365.753906 C 198.398438 365.132812 198.878906 364.488281 199.328125 363.820312 C 199.777344 363.152344 200.195312 362.464844 200.578125 361.757812 C 200.957031 361.050781 201.304688 360.324219 201.617188 359.582031 C 201.929688 358.839844 202.203125 358.085938 202.441406 357.316406 C 202.675781 356.546875 202.875 355.769531 203.035156 354.980469 C 203.199219 354.191406 203.320312 353.398438 203.402344 352.597656 C 203.488281 351.796875 203.53125 350.996094 203.535156 350.191406 L 203.535156 238.941406 L 237.269531 272.648438 L 221.398438 288.503906 C 220.839844 289.078125 220.3125 289.679688 219.8125 290.304688 C 219.3125 290.929688 218.84375 291.578125 218.410156 292.246094 C 217.972656 292.917969 217.570312 293.609375 217.199219 294.320312 C 216.832031 295.027344 216.496094 295.753906 216.199219 296.496094 C 215.898438 297.238281 215.636719 297.996094 215.414062 298.761719 C 215.1875 299.53125 215 300.308594 214.851562 301.09375 C 214.703125 301.878906 214.59375 302.671875 214.519531 303.46875 C 214.449219 304.265625 214.414062 305.0625 214.421875 305.863281 C 214.425781 306.664062 214.46875 307.460938 214.554688 308.257812 C 214.636719 309.054688 214.757812 309.84375 214.917969 310.628906 C 215.082031 311.410156 215.277344 312.183594 215.515625 312.949219 C 215.75 313.714844 216.023438 314.464844 216.332031 315.203125 C 216.640625 315.941406 216.984375 316.664062 217.363281 317.367188 C 217.742188 318.074219 218.15625 318.757812 218.601562 319.421875 C 219.046875 320.085938 219.527344 320.726562 220.035156 321.34375 C 220.542969 321.964844 221.082031 322.554688 221.648438 323.121094 C 222.210938 323.6875 222.804688 324.222656 223.421875 324.730469 C 224.042969 325.238281 224.683594 325.71875 225.347656 326.164062 C 226.015625 326.609375 226.699219 327.019531 227.40625 327.398438 C 228.109375 327.777344 228.832031 328.121094 229.570312 328.429688 C 230.308594 328.742188 231.0625 329.011719 231.824219 329.25 C 232.589844 329.484375 233.367188 329.683594 234.152344 329.84375 C 234.933594 330.003906 235.726562 330.125 236.523438 330.207031 C 237.320312 330.289062 238.117188 330.335938 238.917969 330.339844 C 239.71875 330.347656 240.515625 330.3125 241.316406 330.242188 C 242.113281 330.167969 242.90625 330.058594 243.691406 329.910156 C 244.476562 329.761719 245.253906 329.574219 246.023438 329.347656 C 246.792969 329.125 247.546875 328.863281 248.292969 328.566406 C 249.035156 328.265625 249.761719 327.933594 250.472656 327.5625 C 251.183594 327.195312 251.875 326.792969 252.542969 326.355469 C 253.214844 325.917969 253.863281 325.453125 254.488281 324.953125 C 255.117188 324.453125 255.714844 323.925781 256.289062 323.367188 L 285.855469 293.824219 C 286.550781 293.128906 287.207031 292.402344 287.828125 291.644531 C 288.449219 290.886719 289.03125 290.097656 289.574219 289.28125 C 290.121094 288.464844 290.621094 287.625 291.085938 286.757812 C 291.546875 285.894531 291.964844 285.007812 292.339844 284.101562 C 292.714844 283.195312 293.042969 282.273438 293.328125 281.335938 C 293.613281 280.394531 293.847656 279.445312 294.039062 278.484375 C 294.230469 277.523438 294.375 276.550781 294.46875 275.578125 C 294.566406 274.601562 294.613281 273.621094 294.613281 272.640625 C 294.613281 271.660156 294.566406 270.683594 294.46875 269.707031 C 294.375 268.730469 294.230469 267.761719 294.039062 266.800781 C 293.847656 265.839844 293.613281 264.886719 293.328125 263.949219 C 293.042969 263.011719 292.714844 262.089844 292.339844 261.183594 C 291.964844 260.277344 291.546875 259.390625 291.085938 258.523438 C 290.621094 257.660156 290.121094 256.820312 289.574219 256.003906 C 289.03125 255.1875 288.449219 254.398438 287.828125 253.640625 C 287.207031 252.882812 286.550781 252.152344 285.855469 251.460938 L 252.882812 218.511719 L 252.882812 141.832031 L 342.828125 141.832031 C 343.492188 141.835938 344.152344 141.808594 344.8125 141.746094 C 345.472656 141.6875 346.128906 141.59375 346.777344 141.46875 C 347.429688 141.34375 348.074219 141.183594 348.707031 140.996094 C 349.34375 140.804688 349.96875 140.585938 350.582031 140.335938 C 351.195312 140.085938 351.796875 139.804688 352.382812 139.496094 C 352.96875 139.1875 353.535156 138.847656 354.089844 138.484375 C 354.640625 138.117188 355.175781 137.726562 355.6875 137.304688 C 356.203125 136.886719 356.695312 136.445312 357.164062 135.976562 C 357.636719 135.511719 358.082031 135.023438 358.503906 134.511719 C 358.925781 134 359.320312 133.46875 359.691406 132.921875 C 360.058594 132.371094 360.402344 131.804688 360.714844 131.222656 C 361.027344 130.636719 361.3125 130.039062 361.566406 129.429688 C 361.824219 128.816406 362.046875 128.195312 362.238281 127.558594 C 362.433594 126.925781 362.59375 126.285156 362.722656 125.636719 C 362.855469 124.984375 362.953125 124.332031 363.015625 123.671875 C 363.082031 123.011719 363.113281 122.351562 363.113281 121.691406 C 363.113281 121.027344 363.082031 120.367188 363.015625 119.707031 C 362.953125 119.050781 362.855469 118.394531 362.722656 117.746094 C 362.59375 117.097656 362.433594 116.453125 362.238281 115.820312 C 362.046875 115.1875 361.824219 114.5625 361.566406 113.953125 C 361.3125 113.339844 361.027344 112.742188 360.714844 112.160156 C 360.402344 111.578125 360.058594 111.011719 359.691406 110.460938 C 359.320312 109.910156 358.925781 109.378906 358.503906 108.867188 C 358.082031 108.359375 357.636719 107.871094 357.164062 107.402344 C 356.695312 106.9375 356.203125 106.492188 355.6875 106.074219 C 355.175781 105.65625 354.640625 105.265625 354.089844 104.898438 C 353.535156 104.53125 352.96875 104.195312 352.382812 103.886719 C 351.796875 103.574219 351.195312 103.296875 350.582031 103.042969 C 349.96875 102.792969 349.34375 102.574219 348.707031 102.386719 C 348.074219 102.195312 347.429688 102.039062 346.777344 101.914062 C 346.128906 101.789062 345.472656 101.695312 344.8125 101.632812 C 344.152344 101.574219 343.492188 101.542969 342.828125 101.546875 Z M 342.828125 101.546875 " fill-opacity="1" fill-rule="nonzero"/></g><g fill="#000000" fill-opacity="1"><g transform="translate(154.406114, 130.016111)"><g><path d="M 6.6875 -6.265625 C 6.6875 -6.585938 6.613281 -6.863281 6.46875 -7.09375 C 6.332031 -7.320312 6.132812 -7.507812 5.875 -7.65625 C 5.625 -7.8125 5.320312 -7.921875 4.96875 -7.984375 C 4.613281 -8.054688 4.222656 -8.09375 3.796875 -8.09375 L 0.390625 -8.09375 L 0.390625 -7.90625 L 1.03125 -7.90625 L 1.03125 -0.1875 L 0.390625 -0.1875 L 0.390625 0 L 4.125 0 C 4.488281 0 4.832031 -0.0351562 5.15625 -0.109375 C 5.476562 -0.179688 5.757812 -0.300781 6 -0.46875 C 6.25 -0.644531 6.445312 -0.878906 6.59375 -1.171875 C 6.738281 -1.460938 6.8125 -1.820312 6.8125 -2.25 C 6.8125 -2.632812 6.734375 -2.957031 6.578125 -3.21875 C 6.421875 -3.488281 6.21875 -3.707031 5.96875 -3.875 C 5.71875 -4.039062 5.445312 -4.164062 5.15625 -4.25 C 4.875 -4.34375 4.609375 -4.398438 4.359375 -4.421875 C 4.609375 -4.453125 4.867188 -4.488281 5.140625 -4.53125 C 5.421875 -4.582031 5.671875 -4.671875 5.890625 -4.796875 C 6.117188 -4.929688 6.304688 -5.113281 6.453125 -5.34375 C 6.609375 -5.570312 6.6875 -5.878906 6.6875 -6.265625 Z M 2.96875 -4.5 L 2.96875 -7.90625 L 3.578125 -7.90625 C 3.984375 -7.90625 4.269531 -7.796875 4.4375 -7.578125 C 4.601562 -7.367188 4.6875 -7.015625 4.6875 -6.515625 L 4.6875 -6.015625 C 4.6875 -5.523438 4.609375 -5.148438 4.453125 -4.890625 C 4.296875 -4.628906 4.035156 -4.5 3.671875 -4.5 Z M 2.96875 -0.1875 L 2.96875 -4.3125 L 3.796875 -4.3125 C 4.023438 -4.3125 4.203125 -4.269531 4.328125 -4.1875 C 4.460938 -4.101562 4.566406 -3.984375 4.640625 -3.828125 C 4.710938 -3.671875 4.757812 -3.476562 4.78125 -3.25 C 4.800781 -3.03125 4.8125 -2.785156 4.8125 -2.515625 L 4.8125 -2 C 4.8125 -1.75 4.804688 -1.507812 4.796875 -1.28125 C 4.785156 -1.0625 4.75 -0.867188 4.6875 -0.703125 C 4.625 -0.546875 4.523438 -0.421875 4.390625 -0.328125 C 4.253906 -0.234375 4.054688 -0.1875 3.796875 -0.1875 Z M 2.96875 -0.1875 "/></g></g></g><g fill="#000000" fill-opacity="1"><g transform="translate(161.498131, 130.016111)"><g><path d="M 2.765625 -5.25 C 2.234375 -5.25 1.796875 -5.164062 1.453125 -5 C 1.109375 -4.84375 0.9375 -4.601562 0.9375 -4.28125 C 0.9375 -4.050781 1 -3.882812 1.125 -3.78125 C 1.257812 -3.6875 1.410156 -3.640625 1.578125 -3.640625 C 1.710938 -3.640625 1.820312 -3.660156 1.90625 -3.703125 C 2 -3.742188 2.066406 -3.796875 2.109375 -3.859375 C 2.160156 -3.921875 2.191406 -3.984375 2.203125 -4.046875 C 2.222656 -4.117188 2.234375 -4.179688 2.234375 -4.234375 C 2.234375 -4.429688 2.15625 -4.582031 2 -4.6875 C 1.945312 -4.71875 1.921875 -4.753906 1.921875 -4.796875 C 1.921875 -4.859375 1.976562 -4.910156 2.09375 -4.953125 C 2.21875 -5.003906 2.441406 -5.03125 2.765625 -5.03125 C 3.066406 -5.03125 3.257812 -4.945312 3.34375 -4.78125 C 3.4375 -4.625 3.484375 -4.398438 3.484375 -4.109375 L 3.484375 -3.15625 L 2.1875 -3.15625 C 1.851562 -3.15625 1.5625 -3.101562 1.3125 -3 C 1.070312 -2.90625 0.867188 -2.773438 0.703125 -2.609375 C 0.546875 -2.453125 0.425781 -2.269531 0.34375 -2.0625 C 0.269531 -1.863281 0.234375 -1.660156 0.234375 -1.453125 C 0.234375 -1.234375 0.269531 -1.023438 0.34375 -0.828125 C 0.414062 -0.640625 0.523438 -0.472656 0.671875 -0.328125 C 0.828125 -0.179688 1.019531 -0.0664062 1.25 0.015625 C 1.476562 0.0976562 1.742188 0.140625 2.046875 0.140625 C 2.253906 0.140625 2.429688 0.117188 2.578125 0.078125 C 2.734375 0.046875 2.875 0 3 -0.0625 C 3.125 -0.132812 3.226562 -0.207031 3.3125 -0.28125 C 3.40625 -0.351562 3.484375 -0.421875 3.546875 -0.484375 C 3.617188 -0.316406 3.765625 -0.171875 3.984375 -0.046875 C 4.203125 0.078125 4.515625 0.140625 4.921875 0.140625 C 5.210938 0.140625 5.441406 0.109375 5.609375 0.046875 C 5.773438 -0.015625 5.898438 -0.0859375 5.984375 -0.171875 C 6.078125 -0.265625 6.140625 -0.363281 6.171875 -0.46875 C 6.203125 -0.570312 6.21875 -0.664062 6.21875 -0.75 C 6.21875 -0.820312 6.191406 -0.859375 6.140625 -0.859375 C 6.085938 -0.859375 6.054688 -0.820312 6.046875 -0.75 C 6.023438 -0.625 5.988281 -0.515625 5.9375 -0.421875 C 5.882812 -0.335938 5.789062 -0.296875 5.65625 -0.296875 C 5.488281 -0.296875 5.382812 -0.347656 5.34375 -0.453125 C 5.300781 -0.566406 5.28125 -0.71875 5.28125 -0.90625 L 5.28125 -3.4375 C 5.28125 -3.769531 5.234375 -4.050781 5.140625 -4.28125 C 5.046875 -4.507812 4.894531 -4.695312 4.6875 -4.84375 C 4.488281 -4.988281 4.226562 -5.09375 3.90625 -5.15625 C 3.59375 -5.21875 3.210938 -5.25 2.765625 -5.25 Z M 3.484375 -2.9375 L 3.484375 -0.84375 C 3.484375 -0.769531 3.445312 -0.691406 3.375 -0.609375 C 3.3125 -0.535156 3.226562 -0.46875 3.125 -0.40625 C 3.03125 -0.351562 2.9375 -0.304688 2.84375 -0.265625 C 2.75 -0.222656 2.675781 -0.203125 2.625 -0.203125 C 2.425781 -0.203125 2.285156 -0.300781 2.203125 -0.5 C 2.117188 -0.695312 2.078125 -1.019531 2.078125 -1.46875 C 2.078125 -1.90625 2.144531 -2.257812 2.28125 -2.53125 C 2.425781 -2.800781 2.660156 -2.9375 2.984375 -2.9375 Z M 3.484375 -2.9375 "/></g></g></g><g fill="#000000" fill-opacity="1"><g transform="translate(167.954144, 130.016111)"><g><path d="M 2.765625 -0.1875 L 2.765625 -8.390625 L 0.328125 -7.9375 L 0.328125 -7.734375 L 0.96875 -7.859375 L 0.96875 -0.1875 L 0.328125 -0.1875 L 0.328125 0 L 3.421875 0 L 3.421875 -0.1875 Z M 2.765625 -0.1875 "/></g></g></g><g fill="#000000" fill-opacity="1"><g transform="translate(171.626152, 130.016111)"><g><path d="M 2.765625 -5.25 C 2.234375 -5.25 1.796875 -5.164062 1.453125 -5 C 1.109375 -4.84375 0.9375 -4.601562 0.9375 -4.28125 C 0.9375 -4.050781 1 -3.882812 1.125 -3.78125 C 1.257812 -3.6875 1.410156 -3.640625 1.578125 -3.640625 C 1.710938 -3.640625 1.820312 -3.660156 1.90625 -3.703125 C 2 -3.742188 2.066406 -3.796875 2.109375 -3.859375 C 2.160156 -3.921875 2.191406 -3.984375 2.203125 -4.046875 C 2.222656 -4.117188 2.234375 -4.179688 2.234375 -4.234375 C 2.234375 -4.429688 2.15625 -4.582031 2 -4.6875 C 1.945312 -4.71875 1.921875 -4.753906 1.921875 -4.796875 C 1.921875 -4.859375 1.976562 -4.910156 2.09375 -4.953125 C 2.21875 -5.003906 2.441406 -5.03125 2.765625 -5.03125 C 3.066406 -5.03125 3.257812 -4.945312 3.34375 -4.78125 C 3.4375 -4.625 3.484375 -4.398438 3.484375 -4.109375 L 3.484375 -3.15625 L 2.1875 -3.15625 C 1.851562 -3.15625 1.5625 -3.101562 1.3125 -3 C 1.070312 -2.90625 0.867188 -2.773438 0.703125 -2.609375 C 0.546875 -2.453125 0.425781 -2.269531 0.34375 -2.0625 C 0.269531 -1.863281 0.234375 -1.660156 0.234375 -1.453125 C 0.234375 -1.234375 0.269531 -1.023438 0.34375 -0.828125 C 0.414062 -0.640625 0.523438 -0.472656 0.671875 -0.328125 C 0.828125 -0.179688 1.019531 -0.0664062 1.25 0.015625 C 1.476562 0.0976562 1.742188 0.140625 2.046875 0.140625 C 2.253906 0.140625 2.429688 0.117188 2.578125 0.078125 C 2.734375 0.046875 2.875 0 3 -0.0625 C 3.125 -0.132812 3.226562 -0.207031 3.3125 -0.28125 C 3.40625 -0.351562 3.484375 -0.421875 3.546875 -0.484375 C 3.617188 -0.316406 3.765625 -0.171875 3.984375 -0.046875 C 4.203125 0.078125 4.515625 0.140625 4.921875 0.140625 C 5.210938 0.140625 5.441406 0.109375 5.609375 0.046875 C 5.773438 -0.015625 5.898438 -0.0859375 5.984375 -0.171875 C 6.078125 -0.265625 6.140625 -0.363281 6.171875 -0.46875 C 6.203125 -0.570312 6.21875 -0.664062 6.21875 -0.75 C 6.21875 -0.820312 6.191406 -0.859375 6.140625 -0.859375 C 6.085938 -0.859375 6.054688 -0.820312 6.046875 -0.75 C 6.023438 -0.625 5.988281 -0.515625 5.9375 -0.421875 C 5.882812 -0.335938 5.789062 -0.296875 5.65625 -0.296875 C 5.488281 -0.296875 5.382812 -0.347656 5.34375 -0.453125 C 5.300781 -0.566406 5.28125 -0.71875 5.28125 -0.90625 L 5.28125 -3.4375 C 5.28125 -3.769531 5.234375 -4.050781 5.140625 -4.28125 C 5.046875 -4.507812 4.894531 -4.695312 4.6875 -4.84375 C 4.488281 -4.988281 4.226562 -5.09375 3.90625 -5.15625 C 3.59375 -5.21875 3.210938 -5.25 2.765625 -5.25 Z M 3.484375 -2.9375 L 3.484375 -0.84375 C 3.484375 -0.769531 3.445312 -0.691406 3.375 -0.609375 C 3.3125 -0.535156 3.226562 -0.46875 3.125 -0.40625 C 3.03125 -0.351562 2.9375 -0.304688 2.84375 -0.265625 C 2.75 -0.222656 2.675781 -0.203125 2.625 -0.203125 C 2.425781 -0.203125 2.285156 -0.300781 2.203125 -0.5 C 2.117188 -0.695312 2.078125 -1.019531 2.078125 -1.46875 C 2.078125 -1.90625 2.144531 -2.257812 2.28125 -2.53125 C 2.425781 -2.800781 2.660156 -2.9375 2.984375 -2.9375 Z M 3.484375 -2.9375 "/></g></g></g><g fill="#000000" fill-opacity="1"><g transform="translate(178.082164, 130.016111)"><g><path d="M 5.984375 -0.1875 L 5.984375 -3.59375 C 5.984375 -3.925781 5.929688 -4.203125 5.828125 -4.421875 C 5.734375 -4.648438 5.601562 -4.828125 5.4375 -4.953125 C 5.28125 -5.078125 5.085938 -5.164062 4.859375 -5.21875 C 4.640625 -5.269531 4.410156 -5.296875 4.171875 -5.296875 C 3.960938 -5.296875 3.773438 -5.269531 3.609375 -5.21875 C 3.453125 -5.164062 3.3125 -5.09375 3.1875 -5 C 3.070312 -4.914062 2.96875 -4.8125 2.875 -4.6875 C 2.789062 -4.570312 2.71875 -4.453125 2.65625 -4.328125 L 2.65625 -5.453125 L 0.1875 -5.03125 L 0.1875 -4.828125 L 0.828125 -4.9375 L 0.828125 -0.1875 L 0.1875 -0.1875 L 0.1875 0 L 3.140625 0 L 3.140625 -0.1875 L 2.625 -0.1875 L 2.625 -3.484375 C 2.625 -3.648438 2.65625 -3.816406 2.71875 -3.984375 C 2.789062 -4.160156 2.878906 -4.316406 2.984375 -4.453125 C 3.085938 -4.597656 3.195312 -4.710938 3.3125 -4.796875 C 3.4375 -4.890625 3.554688 -4.9375 3.671875 -4.9375 C 3.898438 -4.9375 4.039062 -4.847656 4.09375 -4.671875 C 4.15625 -4.503906 4.1875 -4.234375 4.1875 -3.859375 L 4.1875 -0.1875 L 3.671875 -0.1875 L 3.671875 0 L 6.640625 0 L 6.640625 -0.1875 Z M 5.984375 -0.1875 "/></g></g></g><g fill="#000000" fill-opacity="1"><g transform="translate(184.838172, 130.016111)"><g><path d="M 3.03125 -5.046875 C 3.34375 -5.046875 3.59375 -5.003906 3.78125 -4.921875 C 3.96875 -4.835938 4.0625 -4.773438 4.0625 -4.734375 C 3.882812 -4.703125 3.734375 -4.625 3.609375 -4.5 C 3.492188 -4.375 3.4375 -4.207031 3.4375 -4 C 3.4375 -3.8125 3.5 -3.648438 3.625 -3.515625 C 3.757812 -3.378906 3.941406 -3.3125 4.171875 -3.3125 C 4.421875 -3.3125 4.609375 -3.382812 4.734375 -3.53125 C 4.867188 -3.6875 4.9375 -3.867188 4.9375 -4.078125 C 4.9375 -4.203125 4.90625 -4.332031 4.84375 -4.46875 C 4.789062 -4.601562 4.6875 -4.726562 4.53125 -4.84375 C 4.382812 -4.96875 4.175781 -5.066406 3.90625 -5.140625 C 3.644531 -5.210938 3.300781 -5.25 2.875 -5.25 C 2.445312 -5.25 2.0625 -5.171875 1.71875 -5.015625 C 1.382812 -4.859375 1.097656 -4.65625 0.859375 -4.40625 C 0.628906 -4.15625 0.453125 -3.867188 0.328125 -3.546875 C 0.210938 -3.222656 0.15625 -2.894531 0.15625 -2.5625 C 0.15625 -2.21875 0.207031 -1.882812 0.3125 -1.5625 C 0.425781 -1.238281 0.597656 -0.953125 0.828125 -0.703125 C 1.054688 -0.453125 1.34375 -0.25 1.6875 -0.09375 C 2.03125 0.0625 2.425781 0.140625 2.875 0.140625 C 3.488281 0.140625 4.003906 -0.00390625 4.421875 -0.296875 C 4.835938 -0.597656 5.125 -0.984375 5.28125 -1.453125 C 5.289062 -1.460938 5.296875 -1.488281 5.296875 -1.53125 C 5.296875 -1.613281 5.257812 -1.65625 5.1875 -1.65625 C 5.125 -1.65625 5.082031 -1.613281 5.0625 -1.53125 C 5 -1.34375 4.898438 -1.164062 4.765625 -1 C 4.640625 -0.832031 4.488281 -0.679688 4.3125 -0.546875 C 4.144531 -0.410156 3.953125 -0.304688 3.734375 -0.234375 C 3.523438 -0.160156 3.304688 -0.125 3.078125 -0.125 C 2.867188 -0.125 2.695312 -0.15625 2.5625 -0.21875 C 2.425781 -0.28125 2.3125 -0.382812 2.21875 -0.53125 C 2.132812 -0.6875 2.070312 -0.890625 2.03125 -1.140625 C 2 -1.390625 1.984375 -1.703125 1.984375 -2.078125 L 1.984375 -3.03125 C 1.984375 -3.40625 2 -3.71875 2.03125 -3.96875 C 2.070312 -4.21875 2.132812 -4.421875 2.21875 -4.578125 C 2.300781 -4.742188 2.40625 -4.863281 2.53125 -4.9375 C 2.664062 -5.007812 2.832031 -5.046875 3.03125 -5.046875 Z M 3.03125 -5.046875 "/></g></g></g><g fill="#000000" fill-opacity="1"><g transform="translate(190.190184, 130.016111)"><g><path d="M 5.625 -2.96875 C 5.59375 -3.175781 5.523438 -3.410156 5.421875 -3.671875 C 5.328125 -3.941406 5.175781 -4.191406 4.96875 -4.421875 C 4.769531 -4.660156 4.5 -4.859375 4.15625 -5.015625 C 3.820312 -5.171875 3.398438 -5.25 2.890625 -5.25 C 2.429688 -5.25 2.03125 -5.171875 1.6875 -5.015625 C 1.351562 -4.859375 1.070312 -4.65625 0.84375 -4.40625 C 0.613281 -4.15625 0.441406 -3.867188 0.328125 -3.546875 C 0.222656 -3.222656 0.171875 -2.894531 0.171875 -2.5625 C 0.171875 -2.21875 0.222656 -1.882812 0.328125 -1.5625 C 0.441406 -1.238281 0.613281 -0.953125 0.84375 -0.703125 C 1.070312 -0.453125 1.351562 -0.25 1.6875 -0.09375 C 2.03125 0.0625 2.429688 0.140625 2.890625 0.140625 C 3.210938 0.140625 3.503906 0.0976562 3.765625 0.015625 C 4.035156 -0.0664062 4.273438 -0.179688 4.484375 -0.328125 C 4.703125 -0.472656 4.882812 -0.640625 5.03125 -0.828125 C 5.175781 -1.015625 5.289062 -1.210938 5.375 -1.421875 C 5.394531 -1.472656 5.40625 -1.523438 5.40625 -1.578125 C 5.40625 -1.648438 5.378906 -1.6875 5.328125 -1.6875 C 5.273438 -1.6875 5.238281 -1.671875 5.21875 -1.640625 C 5.195312 -1.609375 5.164062 -1.554688 5.125 -1.484375 C 5.03125 -1.304688 4.914062 -1.132812 4.78125 -0.96875 C 4.65625 -0.8125 4.5 -0.664062 4.3125 -0.53125 C 4.132812 -0.40625 3.925781 -0.304688 3.6875 -0.234375 C 3.457031 -0.160156 3.191406 -0.125 2.890625 -0.125 C 2.773438 -0.125 2.664062 -0.140625 2.5625 -0.171875 C 2.46875 -0.203125 2.382812 -0.257812 2.3125 -0.34375 C 2.25 -0.4375 2.195312 -0.5625 2.15625 -0.71875 C 2.125 -0.875 2.109375 -1.070312 2.109375 -1.3125 L 2.109375 -2.96875 Z M 2.109375 -4.078125 C 2.109375 -4.722656 2.363281 -5.046875 2.875 -5.046875 C 3.375 -5.046875 3.625 -4.722656 3.625 -4.078125 L 3.625 -3.1875 L 2.109375 -3.1875 Z M 2.109375 -4.078125 "/></g></g></g><g fill="#000000" fill-opacity="1"><g transform="translate(195.950201, 130.016111)"><g/></g></g><g fill="#000000" fill-opacity="1"><g transform="translate(199.310209, 130.016111)"><g><path d="M 6.6875 -6.265625 C 6.6875 -6.585938 6.613281 -6.863281 6.46875 -7.09375 C 6.332031 -7.320312 6.132812 -7.507812 5.875 -7.65625 C 5.625 -7.8125 5.320312 -7.921875 4.96875 -7.984375 C 4.613281 -8.054688 4.222656 -8.09375 3.796875 -8.09375 L 0.390625 -8.09375 L 0.390625 -7.90625 L 1.03125 -7.90625 L 1.03125 -0.1875 L 0.390625 -0.1875 L 0.390625 0 L 4.125 0 C 4.488281 0 4.832031 -0.0351562 5.15625 -0.109375 C 5.476562 -0.179688 5.757812 -0.300781 6 -0.46875 C 6.25 -0.644531 6.445312 -0.878906 6.59375 -1.171875 C 6.738281 -1.460938 6.8125 -1.820312 6.8125 -2.25 C 6.8125 -2.632812 6.734375 -2.957031 6.578125 -3.21875 C 6.421875 -3.488281 6.21875 -3.707031 5.96875 -3.875 C 5.71875 -4.039062 5.445312 -4.164062 5.15625 -4.25 C 4.875 -4.34375 4.609375 -4.398438 4.359375 -4.421875 C 4.609375 -4.453125 4.867188 -4.488281 5.140625 -4.53125 C 5.421875 -4.582031 5.671875 -4.671875 5.890625 -4.796875 C 6.117188 -4.929688 6.304688 -5.113281 6.453125 -5.34375 C 6.609375 -5.570312 6.6875 -5.878906 6.6875 -6.265625 Z M 2.96875 -4.5 L 2.96875 -7.90625 L 3.578125 -7.90625 C 3.984375 -7.90625 4.269531 -7.796875 4.4375 -7.578125 C 4.601562 -7.367188 4.6875 -7.015625 4.6875 -6.515625 L 4.6875 -6.015625 C 4.6875 -5.523438 4.609375 -5.148438 4.453125 -4.890625 C 4.296875 -4.628906 4.035156 -4.5 3.671875 -4.5 Z M 2.96875 -0.1875 L 2.96875 -4.3125 L 3.796875 -4.3125 C 4.023438 -4.3125 4.203125 -4.269531 4.328125 -4.1875 C 4.460938 -4.101562 4.566406 -3.984375 4.640625 -3.828125 C 4.710938 -3.671875 4.757812 -3.476562 4.78125 -3.25 C 4.800781 -3.03125 4.8125 -2.785156 4.8125 -2.515625 L 4.8125 -2 C 4.8125 -1.75 4.804688 -1.507812 4.796875 -1.28125 C 4.785156 -1.0625 4.75 -0.867188 4.6875 -0.703125 C 4.625 -0.546875 4.523438 -0.421875 4.390625 -0.328125 C 4.253906 -0.234375 4.054688 -0.1875 3.796875 -0.1875 Z M 2.96875 -0.1875 "/></g></g></g><g fill="#000000" fill-opacity="1"><g transform="translate(206.402227, 130.016111)"><g><path d="M 0.953125 -4.9375 L 0.953125 -1.8125 C 0.953125 -0.507812 1.554688 0.140625 2.765625 0.140625 C 3.179688 0.140625 3.507812 0.046875 3.75 -0.140625 C 3.988281 -0.335938 4.164062 -0.554688 4.28125 -0.796875 L 4.28125 0 L 6.75 0 L 6.75 -0.1875 L 6.109375 -0.1875 L 6.109375 -5.4375 L 3.671875 -5.03125 L 3.671875 -4.828125 L 4.3125 -4.9375 L 4.3125 -1.78125 C 4.3125 -1.644531 4.28125 -1.488281 4.21875 -1.3125 C 4.164062 -1.144531 4.09375 -0.984375 4 -0.828125 C 3.90625 -0.671875 3.796875 -0.539062 3.671875 -0.4375 C 3.546875 -0.332031 3.414062 -0.28125 3.28125 -0.28125 C 3.082031 -0.28125 2.945312 -0.347656 2.875 -0.484375 C 2.800781 -0.628906 2.765625 -0.875 2.765625 -1.21875 L 2.765625 -5.4375 L 0.3125 -5.03125 L 0.3125 -4.828125 Z M 0.953125 -4.9375 "/></g></g></g><g fill="#000000" fill-opacity="1"><g transform="translate(213.302236, 130.016111)"><g><path d="M 2.40625 -3.171875 C 2.40625 -3.523438 2.410156 -3.816406 2.421875 -4.046875 C 2.441406 -4.273438 2.476562 -4.457031 2.53125 -4.59375 C 2.582031 -4.726562 2.644531 -4.820312 2.71875 -4.875 C 2.789062 -4.9375 2.890625 -4.96875 3.015625 -4.96875 C 3.234375 -4.96875 3.425781 -4.882812 3.59375 -4.71875 C 3.757812 -4.5625 3.898438 -4.382812 4.015625 -4.1875 L 4.015625 -1.09375 C 3.960938 -1 3.898438 -0.898438 3.828125 -0.796875 C 3.753906 -0.703125 3.671875 -0.609375 3.578125 -0.515625 C 3.492188 -0.429688 3.40625 -0.363281 3.3125 -0.3125 C 3.21875 -0.257812 3.117188 -0.234375 3.015625 -0.234375 C 2.890625 -0.234375 2.785156 -0.25 2.703125 -0.28125 C 2.628906 -0.320312 2.566406 -0.398438 2.515625 -0.515625 C 2.472656 -0.640625 2.441406 -0.816406 2.421875 -1.046875 C 2.410156 -1.273438 2.40625 -1.582031 2.40625 -1.96875 Z M 3.375 -7.734375 L 4.015625 -7.859375 L 4.015625 -4.609375 C 3.910156 -4.796875 3.753906 -4.945312 3.546875 -5.0625 C 3.335938 -5.1875 3.066406 -5.25 2.734375 -5.25 C 2.335938 -5.25 1.988281 -5.171875 1.6875 -5.015625 C 1.382812 -4.859375 1.132812 -4.65625 0.9375 -4.40625 C 0.738281 -4.15625 0.585938 -3.867188 0.484375 -3.546875 C 0.390625 -3.234375 0.34375 -2.90625 0.34375 -2.5625 C 0.34375 -2.226562 0.390625 -1.898438 0.484375 -1.578125 C 0.585938 -1.253906 0.738281 -0.96875 0.9375 -0.71875 C 1.132812 -0.46875 1.382812 -0.265625 1.6875 -0.109375 C 1.988281 0.046875 2.335938 0.125 2.734375 0.125 C 3.035156 0.125 3.289062 0.0390625 3.5 -0.125 C 3.71875 -0.300781 3.890625 -0.472656 4.015625 -0.640625 L 4.015625 0 L 6.453125 0 L 6.453125 -0.1875 L 5.8125 -0.1875 L 5.8125 -8.390625 L 3.375 -7.9375 Z M 3.375 -7.734375 "/></g></g></g><g fill="#000000" fill-opacity="1"><g transform="translate(220.010247, 130.016111)"><g><path d="M 2.40625 -3.171875 C 2.40625 -3.523438 2.410156 -3.816406 2.421875 -4.046875 C 2.441406 -4.273438 2.476562 -4.457031 2.53125 -4.59375 C 2.582031 -4.726562 2.644531 -4.820312 2.71875 -4.875 C 2.789062 -4.9375 2.890625 -4.96875 3.015625 -4.96875 C 3.234375 -4.96875 3.425781 -4.882812 3.59375 -4.71875 C 3.757812 -4.5625 3.898438 -4.382812 4.015625 -4.1875 L 4.015625 -1.09375 C 3.960938 -1 3.898438 -0.898438 3.828125 -0.796875 C 3.753906 -0.703125 3.671875 -0.609375 3.578125 -0.515625 C 3.492188 -0.429688 3.40625 -0.363281 3.3125 -0.3125 C 3.21875 -0.257812 3.117188 -0.234375 3.015625 -0.234375 C 2.890625 -0.234375 2.785156 -0.25 2.703125 -0.28125 C 2.628906 -0.320312 2.566406 -0.398438 2.515625 -0.515625 C 2.472656 -0.640625 2.441406 -0.816406 2.421875 -1.046875 C 2.410156 -1.273438 2.40625 -1.582031 2.40625 -1.96875 Z M 3.375 -7.734375 L 4.015625 -7.859375 L 4.015625 -4.609375 C 3.910156 -4.796875 3.753906 -4.945312 3.546875 -5.0625 C 3.335938 -5.1875 3.066406 -5.25 2.734375 -5.25 C 2.335938 -5.25 1.988281 -5.171875 1.6875 -5.015625 C 1.382812 -4.859375 1.132812 -4.65625 0.9375 -4.40625 C 0.738281 -4.15625 0.585938 -3.867188 0.484375 -3.546875 C 0.390625 -3.234375 0.34375 -2.90625 0.34375 -2.5625 C 0.34375 -2.226562 0.390625 -1.898438 0.484375 -1.578125 C 0.585938 -1.253906 0.738281 -0.96875 0.9375 -0.71875 C 1.132812 -0.46875 1.382812 -0.265625 1.6875 -0.109375 C 1.988281 0.046875 2.335938 0.125 2.734375 0.125 C 3.035156 0.125 3.289062 0.0390625 3.5 -0.125 C 3.71875 -0.300781 3.890625 -0.472656 4.015625 -0.640625 L 4.015625 0 L 6.453125 0 L 6.453125 -0.1875 L 5.8125 -0.1875 L 5.8125 -8.390625 L 3.375 -7.9375 Z M 3.375 -7.734375 "/></g></g></g><g fill="#000000" fill-opacity="1"><g transform="translate(226.718258, 130.016111)"><g><path d="M 3.8125 -0.078125 L 5.515625 -4.5 C 5.578125 -4.675781 5.671875 -4.796875 5.796875 -4.859375 C 5.921875 -4.929688 6.066406 -4.96875 6.234375 -4.96875 L 6.234375 -5.15625 L 4.8125 -5.15625 L 4.8125 -4.96875 C 5 -4.96875 5.128906 -4.9375 5.203125 -4.875 C 5.273438 -4.8125 5.3125 -4.75 5.3125 -4.6875 C 5.3125 -4.613281 5.300781 -4.550781 5.28125 -4.5 L 4.21875 -1.703125 L 2.65625 -4.96875 L 3.3125 -4.96875 L 3.3125 -5.15625 L 0.21875 -5.15625 L 0.21875 -4.96875 L 0.859375 -4.96875 L 3.4375 0.40625 C 3.394531 0.570312 3.34375 0.75 3.28125 0.9375 C 3.226562 1.125 3.148438 1.363281 3.046875 1.65625 C 2.921875 2.019531 2.78125 2.316406 2.625 2.546875 C 2.46875 2.773438 2.238281 2.890625 1.9375 2.890625 C 2.019531 2.835938 2.085938 2.769531 2.140625 2.6875 C 2.191406 2.601562 2.21875 2.472656 2.21875 2.296875 C 2.21875 2.117188 2.15625 1.957031 2.03125 1.8125 C 1.90625 1.675781 1.726562 1.609375 1.5 1.609375 C 1.269531 1.609375 1.082031 1.675781 0.9375 1.8125 C 0.789062 1.945312 0.71875 2.113281 0.71875 2.3125 C 0.71875 2.582031 0.8125 2.785156 1 2.921875 C 1.195312 3.054688 1.410156 3.125 1.640625 3.125 C 1.867188 3.125 2.0625 3.101562 2.21875 3.0625 C 2.382812 3.019531 2.523438 2.945312 2.640625 2.84375 C 2.753906 2.75 2.851562 2.617188 2.9375 2.453125 C 3.03125 2.296875 3.117188 2.097656 3.203125 1.859375 C 3.253906 1.703125 3.304688 1.53125 3.359375 1.34375 C 3.421875 1.164062 3.476562 0.988281 3.53125 0.8125 C 3.582031 0.644531 3.628906 0.484375 3.671875 0.328125 C 3.722656 0.171875 3.769531 0.0351562 3.8125 -0.078125 Z M 3.8125 -0.078125 "/></g></g></g></svg>