<svg xmlns="http://www.w3.org/2000/svg" xmlns:xlink="http://www.w3.org/1999/xlink" width="500" zoomAndPan="magnify" viewBox="0 0 375 374.999991" height="500" preserveAspectRatio="xMidYMid meet" version="1.0"><defs><g/><clipPath id="5958437475"><path d="M 75.265625 37.5 L 312 37.5 L 312 315 L 75.265625 315 Z M 75.265625 37.5 " clip-rule="nonzero"/></clipPath></defs><rect x="-37.5" width="450" fill="#ffffff" y="-37.499999" height="449.999989" fill-opacity="1"/><rect x="-37.5" width="450" fill="#ffffff" y="-37.499999" height="449.999989" fill-opacity="1"/><g clip-path="url(#5958437475)"><path fill="#000000" d="M 163.644531 67.757812 C 163.644531 66.777344 163.695312 65.792969 163.789062 64.816406 C 163.886719 63.835938 164.03125 62.867188 164.222656 61.902344 C 164.414062 60.9375 164.652344 59.984375 164.9375 59.042969 C 165.222656 58.101562 165.550781 57.175781 165.929688 56.269531 C 166.304688 55.359375 166.722656 54.472656 167.1875 53.605469 C 167.648438 52.738281 168.152344 51.894531 168.699219 51.078125 C 169.246094 50.257812 169.828125 49.46875 170.453125 48.710938 C 171.074219 47.949219 171.734375 47.222656 172.429688 46.527344 C 173.121094 45.832031 173.847656 45.171875 174.609375 44.546875 C 175.367188 43.925781 176.15625 43.339844 176.972656 42.792969 C 177.789062 42.246094 178.628906 41.742188 179.496094 41.277344 C 180.359375 40.8125 181.246094 40.394531 182.15625 40.019531 C 183.0625 39.640625 183.984375 39.3125 184.925781 39.023438 C 185.863281 38.738281 186.816406 38.5 187.78125 38.308594 C 188.742188 38.117188 189.710938 37.972656 190.691406 37.875 C 191.667969 37.78125 192.648438 37.730469 193.628906 37.730469 C 194.609375 37.730469 195.589844 37.78125 196.566406 37.875 C 197.542969 37.972656 198.515625 38.117188 199.476562 38.308594 C 200.441406 38.5 201.394531 38.738281 202.332031 39.023438 C 203.273438 39.3125 204.195312 39.640625 205.101562 40.019531 C 206.011719 40.394531 206.894531 40.8125 207.761719 41.277344 C 208.628906 41.742188 209.46875 42.246094 210.285156 42.792969 C 211.101562 43.339844 211.890625 43.925781 212.648438 44.546875 C 213.410156 45.171875 214.136719 45.832031 214.828125 46.527344 C 215.523438 47.222656 216.183594 47.949219 216.804688 48.710938 C 217.429688 49.46875 218.011719 50.257812 218.558594 51.078125 C 219.105469 51.894531 219.609375 52.738281 220.070312 53.605469 C 220.535156 54.472656 220.953125 55.359375 221.328125 56.269531 C 221.703125 57.175781 222.035156 58.101562 222.320312 59.042969 C 222.605469 59.984375 222.84375 60.9375 223.035156 61.902344 C 223.226562 62.867188 223.371094 63.835938 223.46875 64.816406 C 223.5625 65.792969 223.613281 66.777344 223.613281 67.757812 C 223.613281 68.742188 223.5625 69.722656 223.46875 70.703125 C 223.371094 71.679688 223.226562 72.652344 223.035156 73.617188 C 222.84375 74.582031 222.605469 75.535156 222.320312 76.476562 C 222.035156 77.417969 221.703125 78.339844 221.328125 79.25 C 220.953125 80.160156 220.535156 81.046875 220.070312 81.914062 C 219.609375 82.78125 219.105469 83.625 218.558594 84.441406 C 218.011719 85.257812 217.429688 86.046875 216.804688 86.808594 C 216.183594 87.566406 215.523438 88.296875 214.828125 88.992188 C 214.136719 89.6875 213.410156 90.347656 212.648438 90.96875 C 211.890625 91.59375 211.101562 92.179688 210.285156 92.726562 C 209.46875 93.273438 208.628906 93.777344 207.761719 94.242188 C 206.894531 94.703125 206.011719 95.125 205.101562 95.5 C 204.195312 95.875 203.273438 96.207031 202.332031 96.492188 C 201.394531 96.777344 200.441406 97.015625 199.476562 97.210938 C 198.515625 97.402344 197.542969 97.546875 196.566406 97.640625 C 195.589844 97.738281 194.609375 97.785156 193.628906 97.785156 C 192.648438 97.785156 191.667969 97.738281 190.691406 97.640625 C 189.710938 97.546875 188.742188 97.402344 187.78125 97.210938 C 186.816406 97.015625 185.863281 96.777344 184.925781 96.492188 C 183.984375 96.207031 183.0625 95.875 182.15625 95.5 C 181.246094 95.125 180.359375 94.703125 179.496094 94.242188 C 178.628906 93.777344 177.789062 93.273438 176.972656 92.726562 C 176.15625 92.179688 175.367188 91.59375 174.609375 90.96875 C 173.847656 90.347656 173.121094 89.6875 172.425781 88.992188 C 171.734375 88.296875 171.074219 87.570312 170.453125 86.808594 C 169.828125 86.046875 169.246094 85.257812 168.699219 84.441406 C 168.152344 83.625 167.648438 82.78125 167.1875 81.914062 C 166.722656 81.046875 166.304688 80.160156 165.929688 79.25 C 165.550781 78.339844 165.222656 77.417969 164.9375 76.476562 C 164.652344 75.535156 164.414062 74.582031 164.222656 73.617188 C 164.03125 72.652344 163.886719 71.679688 163.789062 70.703125 C 163.695312 69.722656 163.644531 68.742188 163.644531 67.757812 Z M 296.472656 112.644531 L 90.785156 112.644531 C 89.804688 112.640625 88.832031 112.730469 87.871094 112.917969 C 86.90625 113.101562 85.96875 113.382812 85.0625 113.753906 C 84.152344 114.125 83.289062 114.582031 82.472656 115.125 C 81.65625 115.667969 80.898438 116.285156 80.203125 116.976562 C 79.503906 117.671875 78.882812 118.425781 78.335938 119.242188 C 77.789062 120.054688 77.328125 120.917969 76.953125 121.824219 C 76.574219 122.734375 76.289062 123.667969 76.097656 124.632812 C 75.90625 125.59375 75.808594 126.566406 75.808594 127.550781 C 75.808594 128.535156 75.90625 129.507812 76.097656 130.46875 C 76.289062 131.433594 76.574219 132.371094 76.953125 133.277344 C 77.328125 134.183594 77.789062 135.046875 78.335938 135.859375 C 78.882812 136.675781 79.503906 137.429688 80.203125 138.125 C 80.898438 138.816406 81.65625 139.433594 82.472656 139.976562 C 83.289062 140.519531 84.152344 140.976562 85.0625 141.347656 C 85.96875 141.71875 86.90625 142 87.871094 142.1875 C 88.832031 142.371094 89.804688 142.460938 90.785156 142.457031 L 157.195312 142.457031 L 157.195312 296.640625 C 157.199219 297.238281 157.230469 297.832031 157.292969 298.421875 C 157.351562 299.015625 157.441406 299.601562 157.5625 300.1875 C 157.679688 300.769531 157.828125 301.347656 158.003906 301.914062 C 158.179688 302.484375 158.382812 303.042969 158.609375 303.589844 C 158.839844 304.140625 159.097656 304.675781 159.378906 305.203125 C 159.660156 305.726562 159.96875 306.234375 160.300781 306.726562 C 160.632812 307.222656 160.988281 307.699219 161.367188 308.15625 C 161.746094 308.617188 162.144531 309.054688 162.566406 309.476562 C 162.988281 309.894531 163.429688 310.292969 163.890625 310.667969 C 164.351562 311.046875 164.828125 311.398438 165.324219 311.730469 C 165.816406 312.058594 166.328125 312.363281 166.851562 312.644531 C 167.378906 312.921875 167.914062 313.175781 168.464844 313.402344 C 169.011719 313.628906 169.574219 313.832031 170.140625 314.003906 C 170.710938 314.175781 171.285156 314.320312 171.871094 314.433594 C 172.453125 314.550781 173.039062 314.636719 173.632812 314.695312 C 174.222656 314.753906 174.816406 314.78125 175.410156 314.78125 C 176.007812 314.78125 176.597656 314.753906 177.191406 314.695312 C 177.78125 314.636719 178.371094 314.550781 178.953125 314.433594 C 179.535156 314.320312 180.113281 314.175781 180.679688 314.003906 C 181.25 313.832031 181.808594 313.628906 182.359375 313.402344 C 182.910156 313.175781 183.445312 312.921875 183.96875 312.644531 C 184.496094 312.363281 185.003906 312.058594 185.5 311.730469 C 185.996094 311.398438 186.472656 311.046875 186.933594 310.667969 C 187.394531 310.292969 187.835938 309.894531 188.257812 309.476562 C 188.679688 309.054688 189.078125 308.617188 189.457031 308.15625 C 189.835938 307.699219 190.191406 307.222656 190.523438 306.726562 C 190.855469 306.234375 191.160156 305.726562 191.445312 305.203125 C 191.726562 304.675781 191.984375 304.140625 192.210938 303.589844 C 192.441406 303.042969 192.644531 302.484375 192.820312 301.914062 C 192.996094 301.347656 193.140625 300.769531 193.261719 300.1875 C 193.378906 299.601562 193.46875 299.015625 193.53125 298.421875 C 193.59375 297.832031 193.625 297.238281 193.628906 296.640625 L 193.628906 214.316406 L 218.535156 239.257812 L 206.816406 250.996094 C 206.40625 251.417969 206.015625 251.863281 205.648438 252.324219 C 205.277344 252.789062 204.933594 253.265625 204.609375 253.761719 C 204.289062 254.261719 203.992188 254.769531 203.71875 255.296875 C 203.445312 255.820312 203.199219 256.359375 202.976562 256.910156 C 202.757812 257.457031 202.566406 258.015625 202.398438 258.585938 C 202.230469 259.152344 202.09375 259.726562 201.984375 260.308594 C 201.875 260.890625 201.792969 261.476562 201.738281 262.066406 C 201.6875 262.65625 201.660156 263.246094 201.664062 263.839844 C 201.667969 264.429688 201.703125 265.023438 201.765625 265.609375 C 201.824219 266.199219 201.914062 266.785156 202.035156 267.363281 C 202.152344 267.945312 202.300781 268.515625 202.472656 269.082031 C 202.648438 269.648438 202.847656 270.203125 203.078125 270.75 C 203.304688 271.296875 203.558594 271.832031 203.839844 272.351562 C 204.121094 272.875 204.425781 273.378906 204.753906 273.871094 C 205.082031 274.363281 205.433594 274.839844 205.808594 275.296875 C 206.1875 275.753906 206.582031 276.191406 207 276.609375 C 207.417969 277.027344 207.855469 277.425781 208.3125 277.800781 C 208.769531 278.175781 209.242188 278.53125 209.734375 278.859375 C 210.226562 279.191406 210.730469 279.496094 211.25 279.777344 C 211.773438 280.054688 212.304688 280.3125 212.851562 280.539062 C 213.394531 280.769531 213.953125 280.96875 214.515625 281.144531 C 215.082031 281.316406 215.652344 281.464844 216.234375 281.582031 C 216.8125 281.703125 217.394531 281.792969 217.984375 281.855469 C 218.570312 281.914062 219.160156 281.949219 219.753906 281.953125 C 220.34375 281.957031 220.933594 281.933594 221.523438 281.878906 C 222.109375 281.824219 222.695312 281.742188 223.277344 281.632812 C 223.859375 281.523438 224.433594 281.382812 225 281.21875 C 225.566406 281.050781 226.125 280.859375 226.671875 280.636719 C 227.222656 280.417969 227.757812 280.171875 228.28125 279.898438 C 228.808594 279.625 229.316406 279.328125 229.8125 279.003906 C 230.308594 278.679688 230.789062 278.335938 231.25 277.964844 C 231.710938 277.59375 232.15625 277.203125 232.578125 276.792969 L 254.410156 254.929688 C 254.917969 254.417969 255.40625 253.878906 255.863281 253.316406 C 256.324219 252.753906 256.753906 252.171875 257.152344 251.566406 C 257.554688 250.964844 257.925781 250.34375 258.269531 249.703125 C 258.609375 249.0625 258.917969 248.40625 259.195312 247.734375 C 259.472656 247.066406 259.714844 246.382812 259.921875 245.6875 C 260.132812 244.992188 260.308594 244.289062 260.449219 243.578125 C 260.589844 242.867188 260.695312 242.148438 260.769531 241.425781 C 260.839844 240.703125 260.875 239.980469 260.875 239.253906 C 260.875 238.53125 260.839844 237.804688 260.769531 237.082031 C 260.695312 236.363281 260.589844 235.644531 260.449219 234.933594 C 260.308594 234.222656 260.132812 233.519531 259.925781 232.824219 C 259.714844 232.128906 259.472656 231.445312 259.195312 230.773438 C 258.917969 230.105469 258.609375 229.449219 258.269531 228.808594 C 257.925781 228.167969 257.554688 227.546875 257.152344 226.941406 C 256.753906 226.339844 256.324219 225.753906 255.863281 225.195312 C 255.40625 224.632812 254.917969 224.09375 254.410156 223.582031 L 230.0625 199.199219 L 230.0625 142.457031 L 296.472656 142.457031 C 297.453125 142.460938 298.425781 142.371094 299.386719 142.1875 C 300.351562 142 301.289062 141.71875 302.195312 141.347656 C 303.105469 140.976562 303.96875 140.519531 304.785156 139.976562 C 305.605469 139.433594 306.359375 138.816406 307.054688 138.125 C 307.753906 137.429688 308.375 136.675781 308.921875 135.863281 C 309.46875 135.046875 309.929688 134.183594 310.308594 133.277344 C 310.683594 132.371094 310.96875 131.433594 311.160156 130.46875 C 311.351562 129.507812 311.449219 128.535156 311.449219 127.550781 C 311.449219 126.566406 311.351562 125.59375 311.160156 124.632812 C 310.96875 123.667969 310.683594 122.730469 310.308594 121.824219 C 309.929688 120.917969 309.46875 120.054688 308.921875 119.242188 C 308.375 118.425781 307.753906 117.671875 307.054688 116.976562 C 306.359375 116.285156 305.605469 115.667969 304.785156 115.125 C 303.96875 114.582031 303.105469 114.125 302.195312 113.753906 C 301.289062 113.382812 300.351562 113.101562 299.386719 112.914062 C 298.425781 112.730469 297.453125 112.640625 296.472656 112.644531 Z M 296.472656 112.644531 " fill-opacity="1" fill-rule="nonzero"/></g><g fill="#000000" fill-opacity="1"><g transform="translate(154.406114, 130.016111)"><g><path d="M 6.6875 -6.265625 C 6.6875 -6.585938 6.613281 -6.863281 6.46875 -7.09375 C 6.332031 -7.320312 6.132812 -7.507812 5.875 -7.65625 C 5.625 -7.8125 5.320312 -7.921875 4.96875 -7.984375 C 4.613281 -8.054688 4.222656 -8.09375 3.796875 -8.09375 L 0.390625 -8.09375 L 0.390625 -7.90625 L 1.03125 -7.90625 L 1.03125 -0.1875 L 0.390625 -0.1875 L 0.390625 0 L 4.125 0 C 4.488281 0 4.832031 -0.0351562 5.15625 -0.109375 C 5.476562 -0.179688 5.757812 -0.300781 6 -0.46875 C 6.25 -0.644531 6.445312 -0.878906 6.59375 -1.171875 C 6.738281 -1.460938 6.8125 -1.820312 6.8125 -2.25 C 6.8125 -2.632812 6.734375 -2.957031 6.578125 -3.21875 C 6.421875 -3.488281 6.21875 -3.707031 5.96875 -3.875 C 5.71875 -4.039062 5.445312 -4.164062 5.15625 -4.25 C 4.875 -4.34375 4.609375 -4.398438 4.359375 -4.421875 C 4.609375 -4.453125 4.867188 -4.488281 5.140625 -4.53125 C 5.421875 -4.582031 5.671875 -4.671875 5.890625 -4.796875 C 6.117188 -4.929688 6.304688 -5.113281 6.453125 -5.34375 C 6.609375 -5.570312 6.6875 -5.878906 6.6875 -6.265625 Z M 2.96875 -4.5 L 2.96875 -7.90625 L 3.578125 -7.90625 C 3.984375 -7.90625 4.269531 -7.796875 4.4375 -7.578125 C 4.601562 -7.367188 4.6875 -7.015625 4.6875 -6.515625 L 4.6875 -6.015625 C 4.6875 -5.523438 4.609375 -5.148438 4.453125 -4.890625 C 4.296875 -4.628906 4.035156 -4.5 3.671875 -4.5 Z M 2.96875 -0.1875 L 2.96875 -4.3125 L 3.796875 -4.3125 C 4.023438 -4.3125 4.203125 -4.269531 4.328125 -4.1875 C 4.460938 -4.101562 4.566406 -3.984375 4.640625 -3.828125 C 4.710938 -3.671875 4.757812 -3.476562 4.78125 -3.25 C 4.800781 -3.03125 4.8125 -2.785156 4.8125 -2.515625 L 4.8125 -2 C 4.8125 -1.75 4.804688 -1.507812 4.796875 -1.28125 C 4.785156 -1.0625 4.75 -0.867188 4.6875 -0.703125 C 4.625 -0.546875 4.523438 -0.421875 4.390625 -0.328125 C 4.253906 -0.234375 4.054688 -0.1875 3.796875 -0.1875 Z M 2.96875 -0.1875 "/></g></g></g><g fill="#000000" fill-opacity="1"><g transform="translate(161.498131, 130.016111)"><g><path d="M 2.765625 -5.25 C 2.234375 -5.25 1.796875 -5.164062 1.453125 -5 C 1.109375 -4.84375 0.9375 -4.601562 0.9375 -4.28125 C 0.9375 -4.050781 1 -3.882812 1.125 -3.78125 C 1.257812 -3.6875 1.410156 -3.640625 1.578125 -3.640625 C 1.710938 -3.640625 1.820312 -3.660156 1.90625 -3.703125 C 2 -3.742188 2.066406 -3.796875 2.109375 -3.859375 C 2.160156 -3.921875 2.191406 -3.984375 2.203125 -4.046875 C 2.222656 -4.117188 2.234375 -4.179688 2.234375 -4.234375 C 2.234375 -4.429688 2.15625 -4.582031 2 -4.6875 C 1.945312 -4.71875 1.921875 -4.753906 1.921875 -4.796875 C 1.921875 -4.859375 1.976562 -4.910156 2.09375 -4.953125 C 2.21875 -5.003906 2.441406 -5.03125 2.765625 -5.03125 C 3.066406 -5.03125 3.257812 -4.945312 3.34375 -4.78125 C 3.4375 -4.625 3.484375 -4.398438 3.484375 -4.109375 L 3.484375 -3.15625 L 2.1875 -3.15625 C 1.851562 -3.15625 1.5625 -3.101562 1.3125 -3 C 1.070312 -2.90625 0.867188 -2.773438 0.703125 -2.609375 C 0.546875 -2.453125 0.425781 -2.269531 0.34375 -2.0625 C 0.269531 -1.863281 0.234375 -1.660156 0.234375 -1.453125 C 0.234375 -1.234375 0.269531 -1.023438 0.34375 -0.828125 C 0.414062 -0.640625 0.523438 -0.472656 0.671875 -0.328125 C 0.828125 -0.179688 1.019531 -0.0664062 1.25 0.015625 C 1.476562 0.0976562 1.742188 0.140625 2.046875 0.140625 C 2.253906 0.140625 2.429688 0.117188 2.578125 0.078125 C 2.734375 0.046875 2.875 0 3 -0.0625 C 3.125 -0.132812 3.226562 -0.207031 3.3125 -0.28125 C 3.40625 -0.351562 3.484375 -0.421875 3.546875 -0.484375 C 3.617188 -0.316406 3.765625 -0.171875 3.984375 -0.046875 C 4.203125 0.078125 4.515625 0.140625 4.921875 0.140625 C 5.210938 0.140625 5.441406 0.109375 5.609375 0.046875 C 5.773438 -0.015625 5.898438 -0.0859375 5.984375 -0.171875 C 6.078125 -0.265625 6.140625 -0.363281 6.171875 -0.46875 C 6.203125 -0.570312 6.21875 -0.664062 6.21875 -0.75 C 6.21875 -0.820312 6.191406 -0.859375 6.140625 -0.859375 C 6.085938 -0.859375 6.054688 -0.820312 6.046875 -0.75 C 6.023438 -0.625 5.988281 -0.515625 5.9375 -0.421875 C 5.882812 -0.335938 5.789062 -0.296875 5.65625 -0.296875 C 5.488281 -0.296875 5.382812 -0.347656 5.34375 -0.453125 C 5.300781 -0.566406 5.28125 -0.71875 5.28125 -0.90625 L 5.28125 -3.4375 C 5.28125 -3.769531 5.234375 -4.050781 5.140625 -4.28125 C 5.046875 -4.507812 4.894531 -4.695312 4.6875 -4.84375 C 4.488281 -4.988281 4.226562 -5.09375 3.90625 -5.15625 C 3.59375 -5.21875 3.210938 -5.25 2.765625 -5.25 Z M 3.484375 -2.9375 L 3.484375 -0.84375 C 3.484375 -0.769531 3.445312 -0.691406 3.375 -0.609375 C 3.3125 -0.535156 3.226562 -0.46875 3.125 -0.40625 C 3.03125 -0.351562 2.9375 -0.304688 2.84375 -0.265625 C 2.75 -0.222656 2.675781 -0.203125 2.625 -0.203125 C 2.425781 -0.203125 2.285156 -0.300781 2.203125 -0.5 C 2.117188 -0.695312 2.078125 -1.019531 2.078125 -1.46875 C 2.078125 -1.90625 2.144531 -2.257812 2.28125 -2.53125 C 2.425781 -2.800781 2.660156 -2.9375 2.984375 -2.9375 Z M 3.484375 -2.9375 "/></g></g></g><g fill="#000000" fill-opacity="1"><g transform="translate(167.954144, 130.016111)"><g><path d="M 2.765625 -0.1875 L 2.765625 -8.390625 L 0.328125 -7.9375 L 0.328125 -7.734375 L 0.96875 -7.859375 L 0.96875 -0.1875 L 0.328125 -0.1875 L 0.328125 0 L 3.421875 0 L 3.421875 -0.1875 Z M 2.765625 -0.1875 "/></g></g></g><g fill="#000000" fill-opacity="1"><g transform="translate(171.626152, 130.016111)"><g><path d="M 2.765625 -5.25 C 2.234375 -5.25 1.796875 -5.164062 1.453125 -5 C 1.109375 -4.84375 0.9375 -4.601562 0.9375 -4.28125 C 0.9375 -4.050781 1 -3.882812 1.125 -3.78125 C 1.257812 -3.6875 1.410156 -3.640625 1.578125 -3.640625 C 1.710938 -3.640625 1.820312 -3.660156 1.90625 -3.703125 C 2 -3.742188 2.066406 -3.796875 2.109375 -3.859375 C 2.160156 -3.921875 2.191406 -3.984375 2.203125 -4.046875 C 2.222656 -4.117188 2.234375 -4.179688 2.234375 -4.234375 C 2.234375 -4.429688 2.15625 -4.582031 2 -4.6875 C 1.945312 -4.71875 1.921875 -4.753906 1.921875 -4.796875 C 1.921875 -4.859375 1.976562 -4.910156 2.09375 -4.953125 C 2.21875 -5.003906 2.441406 -5.03125 2.765625 -5.03125 C 3.066406 -5.03125 3.257812 -4.945312 3.34375 -4.78125 C 3.4375 -4.625 3.484375 -4.398438 3.484375 -4.109375 L 3.484375 -3.15625 L 2.1875 -3.15625 C 1.851562 -3.15625 1.5625 -3.101562 1.3125 -3 C 1.070312 -2.90625 0.867188 -2.773438 0.703125 -2.609375 C 0.546875 -2.453125 0.425781 -2.269531 0.34375 -2.0625 C 0.269531 -1.863281 0.234375 -1.660156 0.234375 -1.453125 C 0.234375 -1.234375 0.269531 -1.023438 0.34375 -0.828125 C 0.414062 -0.640625 0.523438 -0.472656 0.671875 -0.328125 C 0.828125 -0.179688 1.019531 -0.0664062 1.25 0.015625 C 1.476562 0.0976562 1.742188 0.140625 2.046875 0.140625 C 2.253906 0.140625 2.429688 0.117188 2.578125 0.078125 C 2.734375 0.046875 2.875 0 3 -0.0625 C 3.125 -0.132812 3.226562 -0.207031 3.3125 -0.28125 C 3.40625 -0.351562 3.484375 -0.421875 3.546875 -0.484375 C 3.617188 -0.316406 3.765625 -0.171875 3.984375 -0.046875 C 4.203125 0.078125 4.515625 0.140625 4.921875 0.140625 C 5.210938 0.140625 5.441406 0.109375 5.609375 0.046875 C 5.773438 -0.015625 5.898438 -0.0859375 5.984375 -0.171875 C 6.078125 -0.265625 6.140625 -0.363281 6.171875 -0.46875 C 6.203125 -0.570312 6.21875 -0.664062 6.21875 -0.75 C 6.21875 -0.820312 6.191406 -0.859375 6.140625 -0.859375 C 6.085938 -0.859375 6.054688 -0.820312 6.046875 -0.75 C 6.023438 -0.625 5.988281 -0.515625 5.9375 -0.421875 C 5.882812 -0.335938 5.789062 -0.296875 5.65625 -0.296875 C 5.488281 -0.296875 5.382812 -0.347656 5.34375 -0.453125 C 5.300781 -0.566406 5.28125 -0.71875 5.28125 -0.90625 L 5.28125 -3.4375 C 5.28125 -3.769531 5.234375 -4.050781 5.140625 -4.28125 C 5.046875 -4.507812 4.894531 -4.695312 4.6875 -4.84375 C 4.488281 -4.988281 4.226562 -5.09375 3.90625 -5.15625 C 3.59375 -5.21875 3.210938 -5.25 2.765625 -5.25 Z M 3.484375 -2.9375 L 3.484375 -0.84375 C 3.484375 -0.769531 3.445312 -0.691406 3.375 -0.609375 C 3.3125 -0.535156 3.226562 -0.46875 3.125 -0.40625 C 3.03125 -0.351562 2.9375 -0.304688 2.84375 -0.265625 C 2.75 -0.222656 2.675781 -0.203125 2.625 -0.203125 C 2.425781 -0.203125 2.285156 -0.300781 2.203125 -0.5 C 2.117188 -0.695312 2.078125 -1.019531 2.078125 -1.46875 C 2.078125 -1.90625 2.144531 -2.257812 2.28125 -2.53125 C 2.425781 -2.800781 2.660156 -2.9375 2.984375 -2.9375 Z M 3.484375 -2.9375 "/></g></g></g><g fill="#000000" fill-opacity="1"><g transform="translate(178.082164, 130.016111)"><g><path d="M 5.984375 -0.1875 L 5.984375 -3.59375 C 5.984375 -3.925781 5.929688 -4.203125 5.828125 -4.421875 C 5.734375 -4.648438 5.601562 -4.828125 5.4375 -4.953125 C 5.28125 -5.078125 5.085938 -5.164062 4.859375 -5.21875 C 4.640625 -5.269531 4.410156 -5.296875 4.171875 -5.296875 C 3.960938 -5.296875 3.773438 -5.269531 3.609375 -5.21875 C 3.453125 -5.164062 3.3125 -5.09375 3.1875 -5 C 3.070312 -4.914062 2.96875 -4.8125 2.875 -4.6875 C 2.789062 -4.570312 2.71875 -4.453125 2.65625 -4.328125 L 2.65625 -5.453125 L 0.1875 -5.03125 L 0.1875 -4.828125 L 0.828125 -4.9375 L 0.828125 -0.1875 L 0.1875 -0.1875 L 0.1875 0 L 3.140625 0 L 3.140625 -0.1875 L 2.625 -0.1875 L 2.625 -3.484375 C 2.625 -3.648438 2.65625 -3.816406 2.71875 -3.984375 C 2.789062 -4.160156 2.878906 -4.316406 2.984375 -4.453125 C 3.085938 -4.597656 3.195312 -4.710938 3.3125 -4.796875 C 3.4375 -4.890625 3.554688 -4.9375 3.671875 -4.9375 C 3.898438 -4.9375 4.039062 -4.847656 4.09375 -4.671875 C 4.15625 -4.503906 4.1875 -4.234375 4.1875 -3.859375 L 4.1875 -0.1875 L 3.671875 -0.1875 L 3.671875 0 L 6.640625 0 L 6.640625 -0.1875 Z M 5.984375 -0.1875 "/></g></g></g><g fill="#000000" fill-opacity="1"><g transform="translate(184.838172, 130.016111)"><g><path d="M 3.03125 -5.046875 C 3.34375 -5.046875 3.59375 -5.003906 3.78125 -4.921875 C 3.96875 -4.835938 4.0625 -4.773438 4.0625 -4.734375 C 3.882812 -4.703125 3.734375 -4.625 3.609375 -4.5 C 3.492188 -4.375 3.4375 -4.207031 3.4375 -4 C 3.4375 -3.8125 3.5 -3.648438 3.625 -3.515625 C 3.757812 -3.378906 3.941406 -3.3125 4.171875 -3.3125 C 4.421875 -3.3125 4.609375 -3.382812 4.734375 -3.53125 C 4.867188 -3.6875 4.9375 -3.867188 4.9375 -4.078125 C 4.9375 -4.203125 4.90625 -4.332031 4.84375 -4.46875 C 4.789062 -4.601562 4.6875 -4.726562 4.53125 -4.84375 C 4.382812 -4.96875 4.175781 -5.066406 3.90625 -5.140625 C 3.644531 -5.210938 3.300781 -5.25 2.875 -5.25 C 2.445312 -5.25 2.0625 -5.171875 1.71875 -5.015625 C 1.382812 -4.859375 1.097656 -4.65625 0.859375 -4.40625 C 0.628906 -4.15625 0.453125 -3.867188 0.328125 -3.546875 C 0.210938 -3.222656 0.15625 -2.894531 0.15625 -2.5625 C 0.15625 -2.21875 0.207031 -1.882812 0.3125 -1.5625 C 0.425781 -1.238281 0.597656 -0.953125 0.828125 -0.703125 C 1.054688 -0.453125 1.34375 -0.25 1.6875 -0.09375 C 2.03125 0.0625 2.425781 0.140625 2.875 0.140625 C 3.488281 0.140625 4.003906 -0.00390625 4.421875 -0.296875 C 4.835938 -0.597656 5.125 -0.984375 5.28125 -1.453125 C 5.289062 -1.460938 5.296875 -1.488281 5.296875 -1.53125 C 5.296875 -1.613281 5.257812 -1.65625 5.1875 -1.65625 C 5.125 -1.65625 5.082031 -1.613281 5.0625 -1.53125 C 5 -1.34375 4.898438 -1.164062 4.765625 -1 C 4.640625 -0.832031 4.488281 -0.679688 4.3125 -0.546875 C 4.144531 -0.410156 3.953125 -0.304688 3.734375 -0.234375 C 3.523438 -0.160156 3.304688 -0.125 3.078125 -0.125 C 2.867188 -0.125 2.695312 -0.15625 2.5625 -0.21875 C 2.425781 -0.28125 2.3125 -0.382812 2.21875 -0.53125 C 2.132812 -0.6875 2.070312 -0.890625 2.03125 -1.140625 C 2 -1.390625 1.984375 -1.703125 1.984375 -2.078125 L 1.984375 -3.03125 C 1.984375 -3.40625 2 -3.71875 2.03125 -3.96875 C 2.070312 -4.21875 2.132812 -4.421875 2.21875 -4.578125 C 2.300781 -4.742188 2.40625 -4.863281 2.53125 -4.9375 C 2.664062 -5.007812 2.832031 -5.046875 3.03125 -5.046875 Z M 3.03125 -5.046875 "/></g></g></g><g fill="#000000" fill-opacity="1"><g transform="translate(190.190184, 130.016111)"><g><path d="M 5.625 -2.96875 C 5.59375 -3.175781 5.523438 -3.410156 5.421875 -3.671875 C 5.328125 -3.941406 5.175781 -4.191406 4.96875 -4.421875 C 4.769531 -4.660156 4.5 -4.859375 4.15625 -5.015625 C 3.820312 -5.171875 3.398438 -5.25 2.890625 -5.25 C 2.429688 -5.25 2.03125 -5.171875 1.6875 -5.015625 C 1.351562 -4.859375 1.070312 -4.65625 0.84375 -4.40625 C 0.613281 -4.15625 0.441406 -3.867188 0.328125 -3.546875 C 0.222656 -3.222656 0.171875 -2.894531 0.171875 -2.5625 C 0.171875 -2.21875 0.222656 -1.882812 0.328125 -1.5625 C 0.441406 -1.238281 0.613281 -0.953125 0.84375 -0.703125 C 1.070312 -0.453125 1.351562 -0.25 1.6875 -0.09375 C 2.03125 0.0625 2.429688 0.140625 2.890625 0.140625 C 3.210938 0.140625 3.503906 0.0976562 3.765625 0.015625 C 4.035156 -0.0664062 4.273438 -0.179688 4.484375 -0.328125 C 4.703125 -0.472656 4.882812 -0.640625 5.03125 -0.828125 C 5.175781 -1.015625 5.289062 -1.210938 5.375 -1.421875 C 5.394531 -1.472656 5.40625 -1.523438 5.40625 -1.578125 C 5.40625 -1.648438 5.378906 -1.6875 5.328125 -1.6875 C 5.273438 -1.6875 5.238281 -1.671875 5.21875 -1.640625 C 5.195312 -1.609375 5.164062 -1.554688 5.125 -1.484375 C 5.03125 -1.304688 4.914062 -1.132812 4.78125 -0.96875 C 4.65625 -0.8125 4.5 -0.664062 4.3125 -0.53125 C 4.132812 -0.40625 3.925781 -0.304688 3.6875 -0.234375 C 3.457031 -0.160156 3.191406 -0.125 2.890625 -0.125 C 2.773438 -0.125 2.664062 -0.140625 2.5625 -0.171875 C 2.46875 -0.203125 2.382812 -0.257812 2.3125 -0.34375 C 2.25 -0.4375 2.195312 -0.5625 2.15625 -0.71875 C 2.125 -0.875 2.109375 -1.070312 2.109375 -1.3125 L 2.109375 -2.96875 Z M 2.109375 -4.078125 C 2.109375 -4.722656 2.363281 -5.046875 2.875 -5.046875 C 3.375 -5.046875 3.625 -4.722656 3.625 -4.078125 L 3.625 -3.1875 L 2.109375 -3.1875 Z M 2.109375 -4.078125 "/></g></g></g><g fill="#000000" fill-opacity="1"><g transform="translate(195.950201, 130.016111)"><g/></g></g><g fill="#000000" fill-opacity="1"><g transform="translate(199.310209, 130.016111)"><g><path d="M 6.6875 -6.265625 C 6.6875 -6.585938 6.613281 -6.863281 6.46875 -7.09375 C 6.332031 -7.320312 6.132812 -7.507812 5.875 -7.65625 C 5.625 -7.8125 5.320312 -7.921875 4.96875 -7.984375 C 4.613281 -8.054688 4.222656 -8.09375 3.796875 -8.09375 L 0.390625 -8.09375 L 0.390625 -7.90625 L 1.03125 -7.90625 L 1.03125 -0.1875 L 0.390625 -0.1875 L 0.390625 0 L 4.125 0 C 4.488281 0 4.832031 -0.0351562 5.15625 -0.109375 C 5.476562 -0.179688 5.757812 -0.300781 6 -0.46875 C 6.25 -0.644531 6.445312 -0.878906 6.59375 -1.171875 C 6.738281 -1.460938 6.8125 -1.820312 6.8125 -2.25 C 6.8125 -2.632812 6.734375 -2.957031 6.578125 -3.21875 C 6.421875 -3.488281 6.21875 -3.707031 5.96875 -3.875 C 5.71875 -4.039062 5.445312 -4.164062 5.15625 -4.25 C 4.875 -4.34375 4.609375 -4.398438 4.359375 -4.421875 C 4.609375 -4.453125 4.867188 -4.488281 5.140625 -4.53125 C 5.421875 -4.582031 5.671875 -4.671875 5.890625 -4.796875 C 6.117188 -4.929688 6.304688 -5.113281 6.453125 -5.34375 C 6.609375 -5.570312 6.6875 -5.878906 6.6875 -6.265625 Z M 2.96875 -4.5 L 2.96875 -7.90625 L 3.578125 -7.90625 C 3.984375 -7.90625 4.269531 -7.796875 4.4375 -7.578125 C 4.601562 -7.367188 4.6875 -7.015625 4.6875 -6.515625 L 4.6875 -6.015625 C 4.6875 -5.523438 4.609375 -5.148438 4.453125 -4.890625 C 4.296875 -4.628906 4.035156 -4.5 3.671875 -4.5 Z M 2.96875 -0.1875 L 2.96875 -4.3125 L 3.796875 -4.3125 C 4.023438 -4.3125 4.203125 -4.269531 4.328125 -4.1875 C 4.460938 -4.101562 4.566406 -3.984375 4.640625 -3.828125 C 4.710938 -3.671875 4.757812 -3.476562 4.78125 -3.25 C 4.800781 -3.03125 4.8125 -2.785156 4.8125 -2.515625 L 4.8125 -2 C 4.8125 -1.75 4.804688 -1.507812 4.796875 -1.28125 C 4.785156 -1.0625 4.75 -0.867188 4.6875 -0.703125 C 4.625 -0.546875 4.523438 -0.421875 4.390625 -0.328125 C 4.253906 -0.234375 4.054688 -0.1875 3.796875 -0.1875 Z M 2.96875 -0.1875 "/></g></g></g><g fill="#000000" fill-opacity="1"><g transform="translate(206.402227, 130.016111)"><g><path d="M 0.953125 -4.9375 L 0.953125 -1.8125 C 0.953125 -0.507812 1.554688 0.140625 2.765625 0.140625 C 3.179688 0.140625 3.507812 0.046875 3.75 -0.140625 C 3.988281 -0.335938 4.164062 -0.554688 4.28125 -0.796875 L 4.28125 0 L 6.75 0 L 6.75 -0.1875 L 6.109375 -0.1875 L 6.109375 -5.4375 L 3.671875 -5.03125 L 3.671875 -4.828125 L 4.3125 -4.9375 L 4.3125 -1.78125 C 4.3125 -1.644531 4.28125 -1.488281 4.21875 -1.3125 C 4.164062 -1.144531 4.09375 -0.984375 4 -0.828125 C 3.90625 -0.671875 3.796875 -0.539062 3.671875 -0.4375 C 3.546875 -0.332031 3.414062 -0.28125 3.28125 -0.28125 C 3.082031 -0.28125 2.945312 -0.347656 2.875 -0.484375 C 2.800781 -0.628906 2.765625 -0.875 2.765625 -1.21875 L 2.765625 -5.4375 L 0.3125 -5.03125 L 0.3125 -4.828125 Z M 0.953125 -4.9375 "/></g></g></g><g fill="#000000" fill-opacity="1"><g transform="translate(213.302236, 130.016111)"><g><path d="M 2.40625 -3.171875 C 2.40625 -3.523438 2.410156 -3.816406 2.421875 -4.046875 C 2.441406 -4.273438 2.476562 -4.457031 2.53125 -4.59375 C 2.582031 -4.726562 2.644531 -4.820312 2.71875 -4.875 C 2.789062 -4.9375 2.890625 -4.96875 3.015625 -4.96875 C 3.234375 -4.96875 3.425781 -4.882812 3.59375 -4.71875 C 3.757812 -4.5625 3.898438 -4.382812 4.015625 -4.1875 L 4.015625 -1.09375 C 3.960938 -1 3.898438 -0.898438 3.828125 -0.796875 C 3.753906 -0.703125 3.671875 -0.609375 3.578125 -0.515625 C 3.492188 -0.429688 3.40625 -0.363281 3.3125 -0.3125 C 3.21875 -0.257812 3.117188 -0.234375 3.015625 -0.234375 C 2.890625 -0.234375 2.785156 -0.25 2.703125 -0.28125 C 2.628906 -0.320312 2.566406 -0.398438 2.515625 -0.515625 C 2.472656 -0.640625 2.441406 -0.816406 2.421875 -1.046875 C 2.410156 -1.273438 2.40625 -1.582031 2.40625 -1.96875 Z M 3.375 -7.734375 L 4.015625 -7.859375 L 4.015625 -4.609375 C 3.910156 -4.796875 3.753906 -4.945312 3.546875 -5.0625 C 3.335938 -5.1875 3.066406 -5.25 2.734375 -5.25 C 2.335938 -5.25 1.988281 -5.171875 1.6875 -5.015625 C 1.382812 -4.859375 1.132812 -4.65625 0.9375 -4.40625 C 0.738281 -4.15625 0.585938 -3.867188 0.484375 -3.546875 C 0.390625 -3.234375 0.34375 -2.90625 0.34375 -2.5625 C 0.34375 -2.226562 0.390625 -1.898438 0.484375 -1.578125 C 0.585938 -1.253906 0.738281 -0.96875 0.9375 -0.71875 C 1.132812 -0.46875 1.382812 -0.265625 1.6875 -0.109375 C 1.988281 0.046875 2.335938 0.125 2.734375 0.125 C 3.035156 0.125 3.289062 0.0390625 3.5 -0.125 C 3.71875 -0.300781 3.890625 -0.472656 4.015625 -0.640625 L 4.015625 0 L 6.453125 0 L 6.453125 -0.1875 L 5.8125 -0.1875 L 5.8125 -8.390625 L 3.375 -7.9375 Z M 3.375 -7.734375 "/></g></g></g><g fill="#000000" fill-opacity="1"><g transform="translate(220.010247, 130.016111)"><g><path d="M 2.40625 -3.171875 C 2.40625 -3.523438 2.410156 -3.816406 2.421875 -4.046875 C 2.441406 -4.273438 2.476562 -4.457031 2.53125 -4.59375 C 2.582031 -4.726562 2.644531 -4.820312 2.71875 -4.875 C 2.789062 -4.9375 2.890625 -4.96875 3.015625 -4.96875 C 3.234375 -4.96875 3.425781 -4.882812 3.59375 -4.71875 C 3.757812 -4.5625 3.898438 -4.382812 4.015625 -4.1875 L 4.015625 -1.09375 C 3.960938 -1 3.898438 -0.898438 3.828125 -0.796875 C 3.753906 -0.703125 3.671875 -0.609375 3.578125 -0.515625 C 3.492188 -0.429688 3.40625 -0.363281 3.3125 -0.3125 C 3.21875 -0.257812 3.117188 -0.234375 3.015625 -0.234375 C 2.890625 -0.234375 2.785156 -0.25 2.703125 -0.28125 C 2.628906 -0.320312 2.566406 -0.398438 2.515625 -0.515625 C 2.472656 -0.640625 2.441406 -0.816406 2.421875 -1.046875 C 2.410156 -1.273438 2.40625 -1.582031 2.40625 -1.96875 Z M 3.375 -7.734375 L 4.015625 -7.859375 L 4.015625 -4.609375 C 3.910156 -4.796875 3.753906 -4.945312 3.546875 -5.0625 C 3.335938 -5.1875 3.066406 -5.25 2.734375 -5.25 C 2.335938 -5.25 1.988281 -5.171875 1.6875 -5.015625 C 1.382812 -4.859375 1.132812 -4.65625 0.9375 -4.40625 C 0.738281 -4.15625 0.585938 -3.867188 0.484375 -3.546875 C 0.390625 -3.234375 0.34375 -2.90625 0.34375 -2.5625 C 0.34375 -2.226562 0.390625 -1.898438 0.484375 -1.578125 C 0.585938 -1.253906 0.738281 -0.96875 0.9375 -0.71875 C 1.132812 -0.46875 1.382812 -0.265625 1.6875 -0.109375 C 1.988281 0.046875 2.335938 0.125 2.734375 0.125 C 3.035156 0.125 3.289062 0.0390625 3.5 -0.125 C 3.71875 -0.300781 3.890625 -0.472656 4.015625 -0.640625 L 4.015625 0 L 6.453125 0 L 6.453125 -0.1875 L 5.8125 -0.1875 L 5.8125 -8.390625 L 3.375 -7.9375 Z M 3.375 -7.734375 "/></g></g></g><g fill="#000000" fill-opacity="1"><g transform="translate(226.718258, 130.016111)"><g><path d="M 3.8125 -0.078125 L 5.515625 -4.5 C 5.578125 -4.675781 5.671875 -4.796875 5.796875 -4.859375 C 5.921875 -4.929688 6.066406 -4.96875 6.234375 -4.96875 L 6.234375 -5.15625 L 4.8125 -5.15625 L 4.8125 -4.96875 C 5 -4.96875 5.128906 -4.9375 5.203125 -4.875 C 5.273438 -4.8125 5.3125 -4.75 5.3125 -4.6875 C 5.3125 -4.613281 5.300781 -4.550781 5.28125 -4.5 L 4.21875 -1.703125 L 2.65625 -4.96875 L 3.3125 -4.96875 L 3.3125 -5.15625 L 0.21875 -5.15625 L 0.21875 -4.96875 L 0.859375 -4.96875 L 3.4375 0.40625 C 3.394531 0.570312 3.34375 0.75 3.28125 0.9375 C 3.226562 1.125 3.148438 1.363281 3.046875 1.65625 C 2.921875 2.019531 2.78125 2.316406 2.625 2.546875 C 2.46875 2.773438 2.238281 2.890625 1.9375 2.890625 C 2.019531 2.835938 2.085938 2.769531 2.140625 2.6875 C 2.191406 2.601562 2.21875 2.472656 2.21875 2.296875 C 2.21875 2.117188 2.15625 1.957031 2.03125 1.8125 C 1.90625 1.675781 1.726562 1.609375 1.5 1.609375 C 1.269531 1.609375 1.082031 1.675781 0.9375 1.8125 C 0.789062 1.945312 0.71875 2.113281 0.71875 2.3125 C 0.71875 2.582031 0.8125 2.785156 1 2.921875 C 1.195312 3.054688 1.410156 3.125 1.640625 3.125 C 1.867188 3.125 2.0625 3.101562 2.21875 3.0625 C 2.382812 3.019531 2.523438 2.945312 2.640625 2.84375 C 2.753906 2.75 2.851562 2.617188 2.9375 2.453125 C 3.03125 2.296875 3.117188 2.097656 3.203125 1.859375 C 3.253906 1.703125 3.304688 1.53125 3.359375 1.34375 C 3.421875 1.164062 3.476562 0.988281 3.53125 0.8125 C 3.582031 0.644531 3.628906 0.484375 3.671875 0.328125 C 3.722656 0.171875 3.769531 0.0351562 3.8125 -0.078125 Z M 3.8125 -0.078125 "/></g></g></g></svg>