<svg xmlns="http://www.w3.org/2000/svg" xmlns:xlink="http://www.w3.org/1999/xlink" width="500" zoomAndPan="magnify" viewBox="0 0 375 374.999991" height="500" preserveAspectRatio="xMidYMid meet" version="1.0"><defs><g/><clipPath id="f7a512084c"><path d="M 75.265625 37.5 L 312 37.5 L 312 315 L 75.265625 315 Z M 75.265625 37.5 " clip-rule="nonzero"/></clipPath></defs><rect x="-37.5" width="450" fill="#ffffff" y="-37.499999" height="449.999989" fill-opacity="1"/><rect x="-37.5" width="450" fill="#ffffff" y="-37.499999" height="449.999989" fill-opacity="1"/><g clip-path="url(#f7a512084c)"><path fill="#000000" d="M 163.644531 67.757812 C 163.644531 66.777344 163.695312 65.792969 163.789062 64.816406 C 163.886719 63.835938 164.03125 62.867188 164.222656 61.902344 C 164.414062 60.9375 164.652344 59.984375 164.9375 59.042969 C 165.222656 58.101562 165.550781 57.175781 165.929688 56.269531 C 166.304688 55.359375 166.722656 54.472656 167.1875 53.605469 C 167.648438 52.738281 168.152344 51.894531 168.699219 51.078125 C 169.246094 50.257812 169.828125 49.46875 170.453125 48.710938 C 171.074219 47.949219 171.734375 47.222656 172.429688 46.527344 C 173.121094 45.832031 173.847656 45.171875 174.609375 44.546875 C 175.367188 43.925781 176.15625 43.339844 176.972656 42.792969 C 177.789062 42.246094 178.628906 41.742188 179.496094 41.277344 C 180.359375 40.8125 181.246094 40.394531 182.15625 40.019531 C 183.0625 39.640625 183.984375 39.3125 184.925781 39.023438 C 185.863281 38.738281 186.816406 38.5 187.78125 38.308594 C 188.742188 38.117188 189.710938 37.972656 190.691406 37.875 C 191.667969 37.78125 192.648438 37.730469 193.628906 37.730469 C 194.609375 37.730469 195.589844 37.78125 196.566406 37.875 C 197.542969 37.972656 198.515625 38.117188 199.476562 38.308594 C 200.441406 38.5 201.394531 38.738281 202.332031 39.023438 C 203.273438 39.3125 204.195312 39.640625 205.101562 40.019531 C 206.011719 40.394531 206.894531 40.8125 207.761719 41.277344 C 208.628906 41.742188 209.46875 42.246094 210.285156 42.792969 C 211.101562 43.339844 211.890625 43.925781 212.648438 44.546875 C 213.410156 45.171875 214.136719 45.832031 214.828125 46.527344 C 215.523438 47.222656 216.183594 47.949219 216.804688 48.710938 C 217.429688 49.46875 218.011719 50.257812 218.558594 51.078125 C 219.105469 51.894531 219.609375 52.738281 220.070312 53.605469 C 220.535156 54.472656 220.953125 55.359375 221.328125 56.269531 C 221.703125 57.175781 222.035156 58.101562 222.320312 59.042969 C 222.605469 59.984375 222.84375 60.9375 223.035156 61.902344 C 223.226562 62.867188 223.371094 63.835938 223.46875 64.816406 C 223.5625 65.792969 223.613281 66.777344 223.613281 67.757812 C 223.613281 68.742188 223.5625 69.722656 223.46875 70.703125 C 223.371094 71.679688 223.226562 72.652344 223.035156 73.617188 C 222.84375 74.582031 222.605469 75.535156 222.320312 76.476562 C 222.035156 77.417969 221.703125 78.339844 221.328125 79.25 C 220.953125 80.160156 220.535156 81.046875 220.070312 81.914062 C 219.609375 82.78125 219.105469 83.625 218.558594 84.441406 C 218.011719 85.257812 217.429688 86.046875 216.804688 86.808594 C 216.183594 87.566406 215.523438 88.296875 214.828125 88.992188 C 214.136719 89.6875 213.410156 90.347656 212.648438 90.96875 C 211.890625 91.59375 211.101562 92.179688 210.285156 92.726562 C 209.46875 93.273438 208.628906 93.777344 207.761719 94.242188 C 206.894531 94.703125 206.011719 95.125 205.101562 95.5 C 204.195312 95.875 203.273438 96.207031 202.332031 96.492188 C 201.394531 96.777344 200.441406 97.015625 199.476562 97.210938 C 198.515625 97.402344 197.542969 97.546875 196.566406 97.640625 C 195.589844 97.738281 194.609375 97.785156 193.628906 97.785156 C 192.648438 97.785156 191.667969 97.738281 190.691406 97.640625 C 189.710938 97.546875 188.742188 97.402344 187.78125 97.210938 C 186.816406 97.015625 185.863281 96.777344 184.925781 96.492188 C 183.984375 96.207031 183.0625 95.875 182.15625 95.5 C 181.246094 95.125 180.359375 94.703125 179.496094 94.242188 C 178.628906 93.777344 177.789062 93.273438 176.972656 92.726562 C 176.15625 92.179688 175.367188 91.59375 174.609375 90.96875 C 173.847656 90.347656 173.121094 89.6875 172.425781 88.992188 C 171.734375 88.296875 171.074219 87.570312 170.453125 86.808594 C 169.828125 86.046875 169.246094 85.257812 168.699219 84.441406 C 168.152344 83.625 167.648438 82.78125 167.1875 81.914062 C 166.722656 81.046875 166.304688 80.160156 165.929688 79.25 C 165.550781 78.339844 165.222656 77.417969 164.9375 76.476562 C 164.652344 75.535156 164.414062 74.582031 164.222656 73.617188 C 164.03125 72.652344 163.886719 71.679688 163.789062 70.703125 C 163.695312 69.722656 163.644531 68.742188 163.644531 67.757812 Z M 296.472656 112.644531 L 90.785156 112.644531 C 89.804688 112.640625 88.832031 112.730469 87.871094 112.917969 C 86.90625 113.101562 85.96875 113.382812 85.0625 113.753906 C 84.152344 114.125 83.289062 114.582031 82.472656 115.125 C 81.65625 115.667969 80.898438 116.285156 80.203125 116.976562 C 79.503906 117.671875 78.882812 118.425781 78.335938 119.242188 C 77.789062 120.054688 77.328125 120.917969 76.953125 121.824219 C 76.574219 122.734375 76.289062 123.667969 76.097656 124.632812 C 75.90625 125.59375 75.808594 126.566406 75.808594 127.550781 C 75.808594 128.535156 75.90625 129.507812 76.097656 130.46875 C 76.289062 131.433594 76.574219 132.371094 76.953125 133.277344 C 77.328125 134.183594 77.789062 135.046875 78.335938 135.859375 C 78.882812 136.675781 79.503906 137.429688 80.203125 138.125 C 80.898438 138.816406 81.65625 139.433594 82.472656 139.976562 C 83.289062 140.519531 84.152344 140.976562 85.0625 141.347656 C 85.96875 141.71875 86.90625 142 87.871094 142.1875 C 88.832031 142.371094 89.804688 142.460938 90.785156 142.457031 L 157.195312 142.457031 L 157.195312 296.640625 C 157.199219 297.238281 157.230469 297.832031 157.292969 298.421875 C 157.351562 299.015625 157.441406 299.601562 157.5625 300.1875 C 157.679688 300.769531 157.828125 301.347656 158.003906 301.914062 C 158.179688 302.484375 158.382812 303.042969 158.609375 303.589844 C 158.839844 304.140625 159.097656 304.675781 159.378906 305.203125 C 159.660156 305.726562 159.96875 306.234375 160.300781 306.726562 C 160.632812 307.222656 160.988281 307.699219 161.367188 308.15625 C 161.746094 308.617188 162.144531 309.054688 162.566406 309.476562 C 162.988281 309.894531 163.429688 310.292969 163.890625 310.667969 C 164.351562 311.046875 164.828125 311.398438 165.324219 311.730469 C 165.816406 312.058594 166.328125 312.363281 166.851562 312.644531 C 167.378906 312.921875 167.914062 313.175781 168.464844 313.402344 C 169.011719 313.628906 169.574219 313.832031 170.140625 314.003906 C 170.710938 314.175781 171.285156 314.320312 171.871094 314.433594 C 172.453125 314.550781 173.039062 314.636719 173.632812 314.695312 C 174.222656 314.753906 174.816406 314.78125 175.410156 314.78125 C 176.007812 314.78125 176.597656 314.753906 177.191406 314.695312 C 177.78125 314.636719 178.371094 314.550781 178.953125 314.433594 C 179.535156 314.320312 180.113281 314.175781 180.679688 314.003906 C 181.25 313.832031 181.808594 313.628906 182.359375 313.402344 C 182.910156 313.175781 183.445312 312.921875 183.96875 312.644531 C 184.496094 312.363281 185.003906 312.058594 185.5 311.730469 C 185.996094 311.398438 186.472656 311.046875 186.933594 310.667969 C 187.394531 310.292969 187.835938 309.894531 188.257812 309.476562 C 188.679688 309.054688 189.078125 308.617188 189.457031 308.15625 C 189.835938 307.699219 190.191406 307.222656 190.523438 306.726562 C 190.855469 306.234375 191.160156 305.726562 191.445312 305.203125 C 191.726562 304.675781 191.984375 304.140625 192.210938 303.589844 C 192.441406 303.042969 192.644531 302.484375 192.820312 301.914062 C 192.996094 301.347656 193.140625 300.769531 193.261719 300.1875 C 193.378906 299.601562 193.46875 299.015625 193.53125 298.421875 C 193.59375 297.832031 193.625 297.238281 193.628906 296.640625 L 193.628906 214.316406 L 218.535156 239.257812 L 206.816406 250.996094 C 206.40625 251.417969 206.015625 251.863281 205.648438 252.324219 C 205.277344 252.789062 204.933594 253.265625 204.609375 253.761719 C 204.289062 254.261719 203.992188 254.769531 203.71875 255.296875 C 203.445312 255.820312 203.199219 256.359375 202.976562 256.910156 C 202.757812 257.457031 202.566406 258.015625 202.398438 258.585938 C 202.230469 259.152344 202.09375 259.726562 201.984375 260.308594 C 201.875 260.890625 201.792969 261.476562 201.738281 262.066406 C 201.6875 262.65625 201.660156 263.246094 201.664062 263.839844 C 201.667969 264.429688 201.703125 265.023438 201.765625 265.609375 C 201.824219 266.199219 201.914062 266.785156 202.035156 267.363281 C 202.152344 267.945312 202.300781 268.515625 202.472656 269.082031 C 202.648438 269.648438 202.847656 270.203125 203.078125 270.75 C 203.304688 271.296875 203.558594 271.832031 203.839844 272.351562 C 204.121094 272.875 204.425781 273.378906 204.753906 273.871094 C 205.082031 274.363281 205.433594 274.839844 205.808594 275.296875 C 206.1875 275.753906 206.582031 276.191406 207 276.609375 C 207.417969 277.027344 207.855469 277.425781 208.3125 277.800781 C 208.769531 278.175781 209.242188 278.53125 209.734375 278.859375 C 210.226562 279.191406 210.730469 279.496094 211.25 279.777344 C 211.773438 280.054688 212.304688 280.3125 212.851562 280.539062 C 213.394531 280.769531 213.953125 280.96875 214.515625 281.144531 C 215.082031 281.316406 215.652344 281.464844 216.234375 281.582031 C 216.8125 281.703125 217.394531 281.792969 217.984375 281.855469 C 218.570312 281.914062 219.160156 281.949219 219.753906 281.953125 C 220.34375 281.957031 220.933594 281.933594 221.523438 281.878906 C 222.109375 281.824219 222.695312 281.742188 223.277344 281.632812 C 223.859375 281.523438 224.433594 281.382812 225 281.21875 C 225.566406 281.050781 226.125 280.859375 226.671875 280.636719 C 227.222656 280.417969 227.757812 280.171875 228.28125 279.898438 C 228.808594 279.625 229.316406 279.328125 229.8125 279.003906 C 230.308594 278.679688 230.789062 278.335938 231.25 277.964844 C 231.710938 277.59375 232.15625 277.203125 232.578125 276.792969 L 254.410156 254.929688 C 254.917969 254.417969 255.40625 253.878906 255.863281 253.316406 C 256.324219 252.753906 256.753906 252.171875 257.152344 251.566406 C 257.554688 250.964844 257.925781 250.34375 258.269531 249.703125 C 258.609375 249.0625 258.917969 248.40625 259.195312 247.734375 C 259.472656 247.066406 259.714844 246.382812 259.921875 245.6875 C 260.132812 244.992188 260.308594 244.289062 260.449219 243.578125 C 260.589844 242.867188 260.695312 242.148438 260.769531 241.425781 C 260.839844 240.703125 260.875 239.980469 260.875 239.253906 C 260.875 238.53125 260.839844 237.804688 260.769531 237.082031 C 260.695312 236.363281 260.589844 235.644531 260.449219 234.933594 C 260.308594 234.222656 260.132812 233.519531 259.925781 232.824219 C 259.714844 232.128906 259.472656 231.445312 259.195312 230.773438 C 258.917969 230.105469 258.609375 229.449219 258.269531 228.808594 C 257.925781 228.167969 257.554688 227.546875 257.152344 226.941406 C 256.753906 226.339844 256.324219 225.753906 255.863281 225.195312 C 255.40625 224.632812 254.917969 224.09375 254.410156 223.582031 L 230.0625 199.199219 L 230.0625 142.457031 L 296.472656 142.457031 C 297.453125 142.460938 298.425781 142.371094 299.386719 142.1875 C 300.351562 142 301.289062 141.71875 302.195312 141.347656 C 303.105469 140.976562 303.96875 140.519531 304.785156 139.976562 C 305.605469 139.433594 306.359375 138.816406 307.054688 138.125 C 307.753906 137.429688 308.375 136.675781 308.921875 135.863281 C 309.46875 135.046875 309.929688 134.183594 310.308594 133.277344 C 310.683594 132.371094 310.96875 131.433594 311.160156 130.46875 C 311.351562 129.507812 311.449219 128.535156 311.449219 127.550781 C 311.449219 126.566406 311.351562 125.59375 311.160156 124.632812 C 310.96875 123.667969 310.683594 122.730469 310.308594 121.824219 C 309.929688 120.917969 309.46875 120.054688 308.921875 119.242188 C 308.375 118.425781 307.753906 117.671875 307.054688 116.976562 C 306.359375 116.285156 305.605469 115.667969 304.785156 115.125 C 303.96875 114.582031 303.105469 114.125 302.195312 113.753906 C 301.289062 113.382812 300.351562 113.101562 299.386719 112.914062 C 298.425781 112.730469 297.453125 112.640625 296.472656 112.644531 Z M 296.472656 112.644531 " fill-opacity="1" fill-rule="nonzero"/></g><g fill="#ffffff" fill-opacity="1"><g transform="translate(157.201033, 130.016111)"><g><path d="M 6.296875 -6.1875 C 6.296875 -6.488281 6.226562 -6.753906 6.09375 -6.984375 C 5.957031 -7.222656 5.773438 -7.421875 5.546875 -7.578125 C 5.316406 -7.734375 5.050781 -7.851562 4.75 -7.9375 C 4.457031 -8.019531 4.15625 -8.0625 3.84375 -8.0625 L 0.34375 -8.0625 L 0.34375 -7.875 L 1.375 -7.875 L 1.375 -0.1875 L 0.34375 -0.1875 L 0.34375 0 L 3.9375 0 C 4.769531 0 5.414062 -0.191406 5.875 -0.578125 C 6.332031 -0.960938 6.5625 -1.492188 6.5625 -2.171875 C 6.5625 -2.523438 6.488281 -2.832031 6.34375 -3.09375 C 6.207031 -3.351562 6.035156 -3.578125 5.828125 -3.765625 C 5.617188 -3.953125 5.390625 -4.09375 5.140625 -4.1875 C 4.890625 -4.289062 4.65625 -4.351562 4.4375 -4.375 C 4.707031 -4.425781 4.953125 -4.5 5.171875 -4.59375 C 5.398438 -4.6875 5.597656 -4.804688 5.765625 -4.953125 C 5.929688 -5.097656 6.0625 -5.269531 6.15625 -5.46875 C 6.25 -5.675781 6.296875 -5.914062 6.296875 -6.1875 Z M 2.546875 -4.453125 L 2.546875 -7.875 L 3.84375 -7.875 C 4.039062 -7.875 4.21875 -7.847656 4.375 -7.796875 C 4.539062 -7.742188 4.675781 -7.65625 4.78125 -7.53125 C 4.894531 -7.40625 4.984375 -7.238281 5.046875 -7.03125 C 5.109375 -6.832031 5.140625 -6.582031 5.140625 -6.28125 L 5.140625 -6.09375 C 5.140625 -5.769531 5.109375 -5.503906 5.046875 -5.296875 C 4.984375 -5.085938 4.894531 -4.921875 4.78125 -4.796875 C 4.675781 -4.671875 4.539062 -4.582031 4.375 -4.53125 C 4.207031 -4.476562 4.03125 -4.453125 3.84375 -4.453125 Z M 2.546875 -0.1875 L 2.546875 -4.265625 L 3.84375 -4.265625 C 4.394531 -4.265625 4.785156 -4.09375 5.015625 -3.75 C 5.253906 -3.414062 5.375 -2.9375 5.375 -2.3125 L 5.375 -2.03125 C 5.375 -1.445312 5.257812 -0.992188 5.03125 -0.671875 C 4.8125 -0.347656 4.414062 -0.1875 3.84375 -0.1875 Z M 2.546875 -0.1875 "/></g></g></g><g fill="#ffffff" fill-opacity="1"><g transform="translate(164.377051, 130.016111)"><g><path d="M 1.375 -4.578125 C 1.125 -4.410156 1 -4.210938 1 -3.984375 C 1 -3.867188 1.035156 -3.765625 1.109375 -3.671875 C 1.179688 -3.585938 1.285156 -3.546875 1.421875 -3.546875 C 1.554688 -3.546875 1.664062 -3.582031 1.75 -3.65625 C 1.84375 -3.738281 1.890625 -3.835938 1.890625 -3.953125 C 1.890625 -4.015625 1.878906 -4.070312 1.859375 -4.125 C 1.835938 -4.1875 1.796875 -4.25 1.734375 -4.3125 C 1.703125 -4.351562 1.671875 -4.378906 1.640625 -4.390625 C 1.617188 -4.410156 1.609375 -4.429688 1.609375 -4.453125 C 1.609375 -4.484375 1.628906 -4.515625 1.671875 -4.546875 C 1.722656 -4.578125 1.785156 -4.601562 1.859375 -4.625 C 1.929688 -4.65625 2.015625 -4.675781 2.109375 -4.6875 C 2.203125 -4.707031 2.289062 -4.71875 2.375 -4.71875 C 2.625 -4.71875 2.820312 -4.664062 2.96875 -4.5625 C 3.113281 -4.46875 3.1875 -4.285156 3.1875 -4.015625 L 3.1875 -2.609375 C 2.8125 -2.609375 2.460938 -2.566406 2.140625 -2.484375 C 1.828125 -2.410156 1.550781 -2.300781 1.3125 -2.15625 C 1.070312 -2.007812 0.882812 -1.832031 0.75 -1.625 C 0.613281 -1.414062 0.546875 -1.175781 0.546875 -0.90625 C 0.546875 -0.71875 0.578125 -0.550781 0.640625 -0.40625 C 0.710938 -0.269531 0.804688 -0.160156 0.921875 -0.078125 C 1.046875 0.00390625 1.1875 0.0664062 1.34375 0.109375 C 1.5 0.148438 1.664062 0.171875 1.84375 0.171875 C 2.019531 0.171875 2.179688 0.144531 2.328125 0.09375 C 2.484375 0.0507812 2.617188 0 2.734375 -0.0625 C 2.847656 -0.132812 2.941406 -0.207031 3.015625 -0.28125 C 3.097656 -0.351562 3.164062 -0.425781 3.21875 -0.5 C 3.238281 -0.332031 3.3125 -0.175781 3.4375 -0.03125 C 3.570312 0.101562 3.796875 0.171875 4.109375 0.171875 C 4.316406 0.171875 4.488281 0.132812 4.625 0.0625 C 4.769531 0 4.882812 -0.0703125 4.96875 -0.15625 C 5.0625 -0.238281 5.125 -0.328125 5.15625 -0.421875 C 5.195312 -0.515625 5.21875 -0.585938 5.21875 -0.640625 C 5.21875 -0.679688 5.207031 -0.703125 5.1875 -0.703125 C 5.15625 -0.703125 5.125 -0.664062 5.09375 -0.59375 C 5.03125 -0.457031 4.953125 -0.347656 4.859375 -0.265625 C 4.765625 -0.179688 4.660156 -0.140625 4.546875 -0.140625 C 4.390625 -0.140625 4.296875 -0.207031 4.265625 -0.34375 C 4.234375 -0.476562 4.21875 -0.660156 4.21875 -0.890625 L 4.21875 -3.796875 C 4.21875 -4.140625 4.085938 -4.40625 3.828125 -4.59375 C 3.566406 -4.78125 3.175781 -4.875 2.65625 -4.875 C 2.40625 -4.875 2.164062 -4.847656 1.9375 -4.796875 C 1.707031 -4.742188 1.519531 -4.671875 1.375 -4.578125 Z M 3.1875 -2.484375 L 3.1875 -0.8125 C 3.1875 -0.738281 3.148438 -0.660156 3.078125 -0.578125 C 3.003906 -0.503906 2.914062 -0.429688 2.8125 -0.359375 C 2.71875 -0.296875 2.617188 -0.242188 2.515625 -0.203125 C 2.410156 -0.160156 2.320312 -0.140625 2.25 -0.140625 C 2 -0.140625 1.804688 -0.234375 1.671875 -0.421875 C 1.546875 -0.617188 1.484375 -0.882812 1.484375 -1.21875 C 1.484375 -1.476562 1.53125 -1.6875 1.625 -1.84375 C 1.726562 -2.007812 1.859375 -2.132812 2.015625 -2.21875 C 2.171875 -2.3125 2.347656 -2.375 2.546875 -2.40625 C 2.753906 -2.4375 2.96875 -2.460938 3.1875 -2.484375 Z M 3.1875 -2.484375 "/></g></g></g><g fill="#ffffff" fill-opacity="1"><g transform="translate(169.69306, 130.016111)"><g><path d="M 2.296875 -0.1875 L 2.296875 -8.0625 L 0.421875 -8.0625 L 0.421875 -7.875 L 1.265625 -7.875 L 1.265625 -0.1875 L 0.421875 -0.1875 L 0.421875 0 L 3.125 0 L 3.125 -0.1875 Z M 2.296875 -0.1875 "/></g></g></g><g fill="#ffffff" fill-opacity="1"><g transform="translate(173.113069, 130.016111)"><g><path d="M 1.375 -4.578125 C 1.125 -4.410156 1 -4.210938 1 -3.984375 C 1 -3.867188 1.035156 -3.765625 1.109375 -3.671875 C 1.179688 -3.585938 1.285156 -3.546875 1.421875 -3.546875 C 1.554688 -3.546875 1.664062 -3.582031 1.75 -3.65625 C 1.84375 -3.738281 1.890625 -3.835938 1.890625 -3.953125 C 1.890625 -4.015625 1.878906 -4.070312 1.859375 -4.125 C 1.835938 -4.1875 1.796875 -4.25 1.734375 -4.3125 C 1.703125 -4.351562 1.671875 -4.378906 1.640625 -4.390625 C 1.617188 -4.410156 1.609375 -4.429688 1.609375 -4.453125 C 1.609375 -4.484375 1.628906 -4.515625 1.671875 -4.546875 C 1.722656 -4.578125 1.785156 -4.601562 1.859375 -4.625 C 1.929688 -4.65625 2.015625 -4.675781 2.109375 -4.6875 C 2.203125 -4.707031 2.289062 -4.71875 2.375 -4.71875 C 2.625 -4.71875 2.820312 -4.664062 2.96875 -4.5625 C 3.113281 -4.46875 3.1875 -4.285156 3.1875 -4.015625 L 3.1875 -2.609375 C 2.8125 -2.609375 2.460938 -2.566406 2.140625 -2.484375 C 1.828125 -2.410156 1.550781 -2.300781 1.3125 -2.15625 C 1.070312 -2.007812 0.882812 -1.832031 0.75 -1.625 C 0.613281 -1.414062 0.546875 -1.175781 0.546875 -0.90625 C 0.546875 -0.71875 0.578125 -0.550781 0.640625 -0.40625 C 0.710938 -0.269531 0.804688 -0.160156 0.921875 -0.078125 C 1.046875 0.00390625 1.1875 0.0664062 1.34375 0.109375 C 1.5 0.148438 1.664062 0.171875 1.84375 0.171875 C 2.019531 0.171875 2.179688 0.144531 2.328125 0.09375 C 2.484375 0.0507812 2.617188 0 2.734375 -0.0625 C 2.847656 -0.132812 2.941406 -0.207031 3.015625 -0.28125 C 3.097656 -0.351562 3.164062 -0.425781 3.21875 -0.5 C 3.238281 -0.332031 3.3125 -0.175781 3.4375 -0.03125 C 3.570312 0.101562 3.796875 0.171875 4.109375 0.171875 C 4.316406 0.171875 4.488281 0.132812 4.625 0.0625 C 4.769531 0 4.882812 -0.0703125 4.96875 -0.15625 C 5.0625 -0.238281 5.125 -0.328125 5.15625 -0.421875 C 5.195312 -0.515625 5.21875 -0.585938 5.21875 -0.640625 C 5.21875 -0.679688 5.207031 -0.703125 5.1875 -0.703125 C 5.15625 -0.703125 5.125 -0.664062 5.09375 -0.59375 C 5.03125 -0.457031 4.953125 -0.347656 4.859375 -0.265625 C 4.765625 -0.179688 4.660156 -0.140625 4.546875 -0.140625 C 4.390625 -0.140625 4.296875 -0.207031 4.265625 -0.34375 C 4.234375 -0.476562 4.21875 -0.660156 4.21875 -0.890625 L 4.21875 -3.796875 C 4.21875 -4.140625 4.085938 -4.40625 3.828125 -4.59375 C 3.566406 -4.78125 3.175781 -4.875 2.65625 -4.875 C 2.40625 -4.875 2.164062 -4.847656 1.9375 -4.796875 C 1.707031 -4.742188 1.519531 -4.671875 1.375 -4.578125 Z M 3.1875 -2.484375 L 3.1875 -0.8125 C 3.1875 -0.738281 3.148438 -0.660156 3.078125 -0.578125 C 3.003906 -0.503906 2.914062 -0.429688 2.8125 -0.359375 C 2.71875 -0.296875 2.617188 -0.242188 2.515625 -0.203125 C 2.410156 -0.160156 2.320312 -0.140625 2.25 -0.140625 C 2 -0.140625 1.804688 -0.234375 1.671875 -0.421875 C 1.546875 -0.617188 1.484375 -0.882812 1.484375 -1.21875 C 1.484375 -1.476562 1.53125 -1.6875 1.625 -1.84375 C 1.726562 -2.007812 1.859375 -2.132812 2.015625 -2.21875 C 2.171875 -2.3125 2.347656 -2.375 2.546875 -2.40625 C 2.753906 -2.4375 2.96875 -2.460938 3.1875 -2.484375 Z M 3.1875 -2.484375 "/></g></g></g><g fill="#ffffff" fill-opacity="1"><g transform="translate(178.429078, 130.016111)"><g><path d="M 2.296875 -3.796875 L 2.296875 -4.703125 L 0.4375 -4.703125 L 0.4375 -4.515625 L 1.265625 -4.515625 L 1.265625 -0.1875 L 0.4375 -0.1875 L 0.4375 0 L 3.140625 0 L 3.140625 -0.1875 L 2.296875 -0.1875 L 2.296875 -3.171875 C 2.296875 -3.304688 2.332031 -3.453125 2.40625 -3.609375 C 2.476562 -3.765625 2.570312 -3.910156 2.6875 -4.046875 C 2.8125 -4.179688 2.945312 -4.289062 3.09375 -4.375 C 3.238281 -4.46875 3.390625 -4.515625 3.546875 -4.515625 C 3.785156 -4.515625 3.957031 -4.441406 4.0625 -4.296875 C 4.164062 -4.148438 4.21875 -3.921875 4.21875 -3.609375 L 4.21875 -0.1875 L 3.390625 -0.1875 L 3.390625 0 L 6.09375 0 L 6.09375 -0.1875 L 5.25 -0.1875 L 5.25 -3.703125 C 5.25 -4.109375 5.128906 -4.390625 4.890625 -4.546875 C 4.660156 -4.710938 4.363281 -4.796875 4 -4.796875 C 3.5625 -4.796875 3.203125 -4.695312 2.921875 -4.5 C 2.648438 -4.300781 2.441406 -4.066406 2.296875 -3.796875 Z M 2.296875 -3.796875 "/></g></g></g><g fill="#ffffff" fill-opacity="1"><g transform="translate(184.801091, 130.016111)"><g><path d="M 1.640625 -2.078125 L 1.640625 -2.609375 C 1.640625 -2.992188 1.660156 -3.316406 1.703125 -3.578125 C 1.753906 -3.847656 1.832031 -4.0625 1.9375 -4.21875 C 2.039062 -4.382812 2.164062 -4.503906 2.3125 -4.578125 C 2.46875 -4.648438 2.648438 -4.6875 2.859375 -4.6875 C 3.148438 -4.6875 3.347656 -4.644531 3.453125 -4.5625 C 3.566406 -4.488281 3.625 -4.4375 3.625 -4.40625 C 3.625 -4.375 3.613281 -4.34375 3.59375 -4.3125 C 3.53125 -4.25 3.484375 -4.179688 3.453125 -4.109375 C 3.429688 -4.046875 3.421875 -3.960938 3.421875 -3.859375 C 3.421875 -3.703125 3.472656 -3.582031 3.578125 -3.5 C 3.679688 -3.414062 3.800781 -3.375 3.9375 -3.375 C 4.09375 -3.375 4.21875 -3.421875 4.3125 -3.515625 C 4.414062 -3.609375 4.46875 -3.734375 4.46875 -3.890625 C 4.46875 -4.035156 4.414062 -4.171875 4.3125 -4.296875 C 4.207031 -4.421875 4.078125 -4.523438 3.921875 -4.609375 C 3.765625 -4.691406 3.59375 -4.753906 3.40625 -4.796875 C 3.21875 -4.847656 3.039062 -4.875 2.875 -4.875 C 2.5625 -4.875 2.257812 -4.8125 1.96875 -4.6875 C 1.675781 -4.5625 1.410156 -4.390625 1.171875 -4.171875 C 0.941406 -3.953125 0.753906 -3.6875 0.609375 -3.375 C 0.460938 -3.0625 0.390625 -2.71875 0.390625 -2.34375 C 0.390625 -1.957031 0.457031 -1.609375 0.59375 -1.296875 C 0.738281 -0.992188 0.925781 -0.734375 1.15625 -0.515625 C 1.382812 -0.296875 1.644531 -0.125 1.9375 0 C 2.226562 0.113281 2.519531 0.171875 2.8125 0.171875 C 3.113281 0.171875 3.375 0.125 3.59375 0.03125 C 3.820312 -0.0625 4.007812 -0.175781 4.15625 -0.3125 C 4.3125 -0.457031 4.429688 -0.609375 4.515625 -0.765625 C 4.609375 -0.921875 4.675781 -1.0625 4.71875 -1.1875 C 4.726562 -1.238281 4.734375 -1.269531 4.734375 -1.28125 C 4.734375 -1.351562 4.703125 -1.390625 4.640625 -1.390625 C 4.597656 -1.390625 4.5625 -1.347656 4.53125 -1.265625 C 4.488281 -1.117188 4.414062 -0.96875 4.3125 -0.8125 C 4.21875 -0.664062 4.097656 -0.53125 3.953125 -0.40625 C 3.816406 -0.289062 3.65625 -0.195312 3.46875 -0.125 C 3.28125 -0.0625 3.078125 -0.03125 2.859375 -0.03125 C 2.609375 -0.03125 2.40625 -0.0625 2.25 -0.125 C 2.09375 -0.195312 1.96875 -0.316406 1.875 -0.484375 C 1.78125 -0.648438 1.71875 -0.863281 1.6875 -1.125 C 1.65625 -1.382812 1.640625 -1.703125 1.640625 -2.078125 Z M 1.640625 -2.078125 "/></g></g></g><g fill="#ffffff" fill-opacity="1"><g transform="translate(189.7211, 130.016111)"><g><path d="M 4.71875 -2.921875 C 4.707031 -3.046875 4.660156 -3.21875 4.578125 -3.4375 C 4.503906 -3.664062 4.390625 -3.882812 4.234375 -4.09375 C 4.078125 -4.300781 3.863281 -4.484375 3.59375 -4.640625 C 3.332031 -4.796875 3.007812 -4.875 2.625 -4.875 C 2.300781 -4.875 2 -4.796875 1.71875 -4.640625 C 1.445312 -4.492188 1.210938 -4.300781 1.015625 -4.0625 C 0.816406 -3.820312 0.660156 -3.546875 0.546875 -3.234375 C 0.441406 -2.929688 0.390625 -2.625 0.390625 -2.3125 C 0.390625 -2 0.441406 -1.691406 0.546875 -1.390625 C 0.660156 -1.097656 0.816406 -0.835938 1.015625 -0.609375 C 1.210938 -0.378906 1.453125 -0.191406 1.734375 -0.046875 C 2.023438 0.0976562 2.335938 0.171875 2.671875 0.171875 C 2.941406 0.171875 3.1875 0.128906 3.40625 0.046875 C 3.632812 -0.0234375 3.832031 -0.125 4 -0.25 C 4.175781 -0.382812 4.320312 -0.539062 4.4375 -0.71875 C 4.5625 -0.894531 4.660156 -1.078125 4.734375 -1.265625 C 4.765625 -1.328125 4.78125 -1.382812 4.78125 -1.4375 C 4.78125 -1.5 4.753906 -1.53125 4.703125 -1.53125 C 4.660156 -1.53125 4.625 -1.488281 4.59375 -1.40625 C 4.519531 -1.238281 4.425781 -1.066406 4.3125 -0.890625 C 4.207031 -0.722656 4.078125 -0.578125 3.921875 -0.453125 C 3.773438 -0.328125 3.597656 -0.222656 3.390625 -0.140625 C 3.191406 -0.0664062 2.960938 -0.03125 2.703125 -0.03125 C 2.378906 -0.03125 2.117188 -0.148438 1.921875 -0.390625 C 1.722656 -0.628906 1.625 -1.007812 1.625 -1.53125 L 1.625 -2.765625 L 4.53125 -2.765625 C 4.65625 -2.765625 4.71875 -2.816406 4.71875 -2.921875 Z M 1.625 -2.953125 L 1.625 -3.4375 C 1.625 -3.695312 1.65625 -3.90625 1.71875 -4.0625 C 1.78125 -4.226562 1.859375 -4.351562 1.953125 -4.4375 C 2.046875 -4.53125 2.148438 -4.59375 2.265625 -4.625 C 2.390625 -4.664062 2.515625 -4.6875 2.640625 -4.6875 C 2.828125 -4.6875 2.984375 -4.648438 3.109375 -4.578125 C 3.234375 -4.503906 3.332031 -4.410156 3.40625 -4.296875 C 3.476562 -4.191406 3.523438 -4.070312 3.546875 -3.9375 C 3.578125 -3.800781 3.59375 -3.660156 3.59375 -3.515625 C 3.59375 -3.140625 3.53125 -2.953125 3.40625 -2.953125 Z M 1.625 -2.953125 "/></g></g></g><g fill="#ffffff" fill-opacity="1"><g transform="translate(194.929112, 130.016111)"><g/></g></g><g fill="#ffffff" fill-opacity="1"><g transform="translate(198.157124, 130.016111)"><g><path d="M 6.296875 -6.1875 C 6.296875 -6.488281 6.226562 -6.753906 6.09375 -6.984375 C 5.957031 -7.222656 5.773438 -7.421875 5.546875 -7.578125 C 5.316406 -7.734375 5.050781 -7.851562 4.75 -7.9375 C 4.457031 -8.019531 4.15625 -8.0625 3.84375 -8.0625 L 0.34375 -8.0625 L 0.34375 -7.875 L 1.375 -7.875 L 1.375 -0.1875 L 0.34375 -0.1875 L 0.34375 0 L 3.9375 0 C 4.769531 0 5.414062 -0.191406 5.875 -0.578125 C 6.332031 -0.960938 6.5625 -1.492188 6.5625 -2.171875 C 6.5625 -2.523438 6.488281 -2.832031 6.34375 -3.09375 C 6.207031 -3.351562 6.035156 -3.578125 5.828125 -3.765625 C 5.617188 -3.953125 5.390625 -4.09375 5.140625 -4.1875 C 4.890625 -4.289062 4.65625 -4.351562 4.4375 -4.375 C 4.707031 -4.425781 4.953125 -4.5 5.171875 -4.59375 C 5.398438 -4.6875 5.597656 -4.804688 5.765625 -4.953125 C 5.929688 -5.097656 6.0625 -5.269531 6.15625 -5.46875 C 6.25 -5.675781 6.296875 -5.914062 6.296875 -6.1875 Z M 2.546875 -4.453125 L 2.546875 -7.875 L 3.84375 -7.875 C 4.039062 -7.875 4.21875 -7.847656 4.375 -7.796875 C 4.539062 -7.742188 4.675781 -7.65625 4.78125 -7.53125 C 4.894531 -7.40625 4.984375 -7.238281 5.046875 -7.03125 C 5.109375 -6.832031 5.140625 -6.582031 5.140625 -6.28125 L 5.140625 -6.09375 C 5.140625 -5.769531 5.109375 -5.503906 5.046875 -5.296875 C 4.984375 -5.085938 4.894531 -4.921875 4.78125 -4.796875 C 4.675781 -4.671875 4.539062 -4.582031 4.375 -4.53125 C 4.207031 -4.476562 4.03125 -4.453125 3.84375 -4.453125 Z M 2.546875 -0.1875 L 2.546875 -4.265625 L 3.84375 -4.265625 C 4.394531 -4.265625 4.785156 -4.09375 5.015625 -3.75 C 5.253906 -3.414062 5.375 -2.9375 5.375 -2.3125 L 5.375 -2.03125 C 5.375 -1.445312 5.257812 -0.992188 5.03125 -0.671875 C 4.8125 -0.347656 4.414062 -0.1875 3.84375 -0.1875 Z M 2.546875 -0.1875 "/></g></g></g><g fill="#ffffff" fill-opacity="1"><g transform="translate(205.333141, 130.016111)"><g><path d="M 4.234375 -0.90625 L 4.234375 0 L 6.109375 0 L 6.109375 -0.1875 L 5.265625 -0.1875 L 5.265625 -4.703125 L 3.390625 -4.703125 L 3.390625 -4.515625 L 4.234375 -4.515625 L 4.234375 -1.53125 C 4.234375 -1.394531 4.195312 -1.25 4.125 -1.09375 C 4.050781 -0.945312 3.945312 -0.804688 3.8125 -0.671875 C 3.6875 -0.546875 3.539062 -0.4375 3.375 -0.34375 C 3.207031 -0.257812 3.035156 -0.21875 2.859375 -0.21875 C 2.578125 -0.21875 2.394531 -0.285156 2.3125 -0.421875 C 2.238281 -0.554688 2.203125 -0.773438 2.203125 -1.078125 L 2.203125 -4.703125 L 0.328125 -4.703125 L 0.328125 -4.515625 L 1.15625 -4.515625 L 1.15625 -1.15625 C 1.15625 -0.90625 1.1875 -0.695312 1.25 -0.53125 C 1.320312 -0.363281 1.410156 -0.226562 1.515625 -0.125 C 1.628906 -0.03125 1.757812 0.03125 1.90625 0.0625 C 2.0625 0.101562 2.21875 0.125 2.375 0.125 C 2.800781 0.125 3.171875 0.0351562 3.484375 -0.140625 C 3.796875 -0.316406 4.046875 -0.570312 4.234375 -0.90625 Z M 4.234375 -0.90625 "/></g></g></g><g fill="#ffffff" fill-opacity="1"><g transform="translate(211.813151, 130.016111)"><g><path d="M 3.078125 -7.875 L 3.984375 -7.875 L 3.984375 -4.21875 C 3.691406 -4.65625 3.253906 -4.875 2.671875 -4.875 C 2.390625 -4.875 2.109375 -4.800781 1.828125 -4.65625 C 1.554688 -4.507812 1.316406 -4.316406 1.109375 -4.078125 C 0.898438 -3.847656 0.734375 -3.582031 0.609375 -3.28125 C 0.484375 -2.976562 0.421875 -2.671875 0.421875 -2.359375 C 0.421875 -2.023438 0.488281 -1.703125 0.625 -1.390625 C 0.769531 -1.085938 0.945312 -0.816406 1.15625 -0.578125 C 1.375 -0.347656 1.613281 -0.164062 1.875 -0.03125 C 2.144531 0.101562 2.398438 0.171875 2.640625 0.171875 C 2.960938 0.171875 3.226562 0.09375 3.4375 -0.0625 C 3.65625 -0.226562 3.835938 -0.414062 3.984375 -0.625 L 3.984375 0 L 5.921875 0 L 5.921875 -0.1875 L 5.015625 -0.1875 L 5.015625 -8.0625 L 3.078125 -8.0625 Z M 1.671875 -2.65625 C 1.671875 -3.40625 1.75 -3.929688 1.90625 -4.234375 C 2.0625 -4.535156 2.332031 -4.6875 2.71875 -4.6875 C 2.882812 -4.6875 3.035156 -4.65625 3.171875 -4.59375 C 3.304688 -4.539062 3.421875 -4.46875 3.515625 -4.375 C 3.617188 -4.28125 3.707031 -4.179688 3.78125 -4.078125 C 3.863281 -3.972656 3.929688 -3.875 3.984375 -3.78125 L 3.984375 -0.96875 C 3.804688 -0.675781 3.609375 -0.445312 3.390625 -0.28125 C 3.179688 -0.113281 2.945312 -0.03125 2.6875 -0.03125 C 2.519531 -0.03125 2.367188 -0.0625 2.234375 -0.125 C 2.109375 -0.195312 2.003906 -0.3125 1.921875 -0.46875 C 1.835938 -0.625 1.773438 -0.832031 1.734375 -1.09375 C 1.691406 -1.351562 1.671875 -1.679688 1.671875 -2.078125 Z M 1.671875 -2.65625 "/></g></g></g><g fill="#ffffff" fill-opacity="1"><g transform="translate(218.029158, 130.016111)"><g><path d="M 3.078125 -7.875 L 3.984375 -7.875 L 3.984375 -4.21875 C 3.691406 -4.65625 3.253906 -4.875 2.671875 -4.875 C 2.390625 -4.875 2.109375 -4.800781 1.828125 -4.65625 C 1.554688 -4.507812 1.316406 -4.316406 1.109375 -4.078125 C 0.898438 -3.847656 0.734375 -3.582031 0.609375 -3.28125 C 0.484375 -2.976562 0.421875 -2.671875 0.421875 -2.359375 C 0.421875 -2.023438 0.488281 -1.703125 0.625 -1.390625 C 0.769531 -1.085938 0.945312 -0.816406 1.15625 -0.578125 C 1.375 -0.347656 1.613281 -0.164062 1.875 -0.03125 C 2.144531 0.101562 2.398438 0.171875 2.640625 0.171875 C 2.960938 0.171875 3.226562 0.09375 3.4375 -0.0625 C 3.65625 -0.226562 3.835938 -0.414062 3.984375 -0.625 L 3.984375 0 L 5.921875 0 L 5.921875 -0.1875 L 5.015625 -0.1875 L 5.015625 -8.0625 L 3.078125 -8.0625 Z M 1.671875 -2.65625 C 1.671875 -3.40625 1.75 -3.929688 1.90625 -4.234375 C 2.0625 -4.535156 2.332031 -4.6875 2.71875 -4.6875 C 2.882812 -4.6875 3.035156 -4.65625 3.171875 -4.59375 C 3.304688 -4.539062 3.421875 -4.46875 3.515625 -4.375 C 3.617188 -4.28125 3.707031 -4.179688 3.78125 -4.078125 C 3.863281 -3.972656 3.929688 -3.875 3.984375 -3.78125 L 3.984375 -0.96875 C 3.804688 -0.675781 3.609375 -0.445312 3.390625 -0.28125 C 3.179688 -0.113281 2.945312 -0.03125 2.6875 -0.03125 C 2.519531 -0.03125 2.367188 -0.0625 2.234375 -0.125 C 2.109375 -0.195312 2.003906 -0.3125 1.921875 -0.46875 C 1.835938 -0.625 1.773438 -0.832031 1.734375 -1.09375 C 1.691406 -1.351562 1.671875 -1.679688 1.671875 -2.078125 Z M 1.671875 -2.65625 "/></g></g></g><g fill="#ffffff" fill-opacity="1"><g transform="translate(224.245165, 130.016111)"><g><path d="M 0.359375 -4.703125 L 0.359375 -4.515625 L 1.15625 -4.515625 L 3.15625 0.046875 L 2.453125 1.890625 C 2.347656 2.148438 2.234375 2.34375 2.109375 2.46875 C 1.992188 2.59375 1.878906 2.65625 1.765625 2.65625 C 1.703125 2.65625 1.660156 2.640625 1.640625 2.609375 C 1.617188 2.578125 1.597656 2.539062 1.578125 2.5 C 1.523438 2.394531 1.460938 2.316406 1.390625 2.265625 C 1.316406 2.210938 1.222656 2.1875 1.109375 2.1875 C 0.972656 2.1875 0.867188 2.226562 0.796875 2.3125 C 0.722656 2.40625 0.6875 2.507812 0.6875 2.625 C 0.6875 2.78125 0.734375 2.898438 0.828125 2.984375 C 0.929688 3.078125 1.085938 3.125 1.296875 3.125 C 1.578125 3.125 1.835938 3.019531 2.078125 2.8125 C 2.316406 2.601562 2.503906 2.3125 2.640625 1.9375 L 5.109375 -4.515625 L 5.90625 -4.515625 L 5.90625 -4.703125 L 4.015625 -4.703125 L 4.015625 -4.515625 L 4.890625 -4.515625 L 3.640625 -1.25 L 2.25 -4.515625 L 3.1875 -4.515625 L 3.1875 -4.703125 Z M 0.359375 -4.703125 "/></g></g></g></svg>